<svg width="134" height="102" viewBox="0 0 134 102" fill="none" xmlns="http://www.w3.org/2000/svg">
<path d="M82.4995 34.539C79.3433 34.539 77.8923 33.537 76.055 32.2694C73.9641 30.8242 71.5928 29.1874 67 29.1874C62.4072 29.1874 60.035 30.8237 57.9436 32.2694C56.1072 33.537 54.6562 34.539 51.5 34.539C48.3438 34.539 46.8928 33.537 45.0564 32.2694C42.9641 30.8242 40.5933 29.1874 36 29.1874V33.6469C39.1562 33.6469 40.6072 34.6489 42.4436 35.918C44.5359 37.3632 46.9067 39 51.5 39C56.0933 39 58.4641 37.3622 60.555 35.918C62.3918 34.6489 63.8433 33.6469 66.9995 33.6469C70.1557 33.6469 71.6062 34.6489 73.4441 35.918C75.535 37.3632 77.9062 39 82.499 39C87.0919 39 89.4641 37.3622 91.5555 35.918C93.3918 34.6489 94.8438 33.6469 98 33.6469V29.1874C93.4067 29.1874 91.035 30.8237 88.945 32.2694C87.1072 33.537 85.6552 34.539 82.499 34.539H82.4995Z" fill="#00DAFF"/>
<path d="M88.9455 19.1135C88.6568 19.3125 88.378 19.5051 88.1002 19.6885C87.9764 17.2632 87.4281 14.9079 86.4659 12.6728C85.4016 10.2013 83.8787 7.9827 81.9394 6.07787C80 4.17303 77.7412 2.67728 75.2249 1.63195C72.618 0.549172 69.8511 0 67.0005 0C64.1499 0 61.3825 0.549172 58.7761 1.63195C56.2597 2.67728 54.001 4.17303 52.0616 6.07787C50.1222 7.9827 48.5994 10.2013 47.5351 12.6728C46.5729 14.9079 46.0246 17.2632 45.9008 19.6885C45.6235 19.5056 45.3442 19.313 45.0559 19.114C42.9641 17.6693 40.5924 16.0306 36 16.0306V20.4921C39.1562 20.4921 40.6072 21.4931 42.4436 22.7617C44.5359 24.2059 46.9067 25.8437 51.5 25.8437C56.0933 25.8437 58.4641 24.2059 60.555 22.7617C62.3918 21.4926 63.8433 20.4921 66.9995 20.4921C70.1557 20.4921 71.6067 21.4931 73.4441 22.7617C75.535 24.2059 77.9062 25.8437 82.499 25.8437C87.0919 25.8437 89.4641 24.2059 91.5555 22.7617C93.3918 21.4926 94.8438 20.4921 98 20.4921V16.0306C93.4067 16.0306 91.035 17.6693 88.945 19.1135H88.9455ZM67 16.0306C62.4067 16.0306 60.035 17.6693 57.9436 19.1135C56.1746 20.3345 54.7626 21.3088 51.8412 21.3788C51.8858 21.1765 51.9096 20.9663 51.9096 20.7508C51.9096 12.5779 58.679 5.92902 67.0005 5.92902C75.322 5.92902 82.0914 12.5779 82.0914 20.7508C82.0914 20.9663 82.1157 21.1765 82.1598 21.3788C79.2374 21.3088 77.8254 20.3345 76.055 19.1135C73.9641 17.6693 71.5928 16.0306 67 16.0306Z" fill="#00DAFF"/>
<path d="M1.46 92L12.98 64H16.18L27.62 92H22.66L13.7 69.32H15.38L6.34 92H1.46ZM7.14 86.6V82.6H21.98V86.6H7.14ZM31.0259 92V63.2H35.4259V92H31.0259ZM40.3628 92V72.8H44.7628V92H40.3628ZM42.5628 69.28C41.8161 69.28 41.1895 69.0267 40.6828 68.52C40.2028 68.0133 39.9628 67.3867 39.9628 66.64C39.9628 65.8933 40.2028 65.2667 40.6828 64.76C41.1895 64.2533 41.8161 64 42.5628 64C43.3361 64 43.9628 64.2533 44.4428 64.76C44.9228 65.2667 45.1628 65.8933 45.1628 66.64C45.1628 67.3867 44.9228 68.0133 44.4428 68.52C43.9628 69.0267 43.3361 69.28 42.5628 69.28ZM57.7378 92.4C56.0045 92.4 54.4311 91.96 53.0178 91.08C51.6311 90.2 50.5245 89.0133 49.6978 87.52C48.8978 86 48.4978 84.3067 48.4978 82.44C48.4978 80.5467 48.8978 78.8533 49.6978 77.36C50.5245 75.84 51.6311 74.64 53.0178 73.76C54.4311 72.8533 56.0045 72.4 57.7378 72.4C59.2045 72.4 60.4978 72.72 61.6178 73.36C62.7645 73.9733 63.6711 74.8267 64.3378 75.92C65.0045 77.0133 65.3378 78.2533 65.3378 79.64V85.16C65.3378 86.5467 65.0045 87.7867 64.3378 88.88C63.6978 89.9733 62.8045 90.84 61.6578 91.48C60.5111 92.0933 59.2045 92.4 57.7378 92.4ZM58.4578 88.24C60.0845 88.24 61.3911 87.6933 62.3778 86.6C63.3911 85.5067 63.8978 84.1067 63.8978 82.4C63.8978 81.2533 63.6711 80.24 63.2178 79.36C62.7645 78.48 62.1245 77.8 61.2978 77.32C60.4978 76.8133 59.5511 76.56 58.4578 76.56C57.3911 76.56 56.4445 76.8133 55.6178 77.32C54.8178 77.8 54.1778 78.48 53.6978 79.36C53.2445 80.24 53.0178 81.2533 53.0178 82.4C53.0178 83.5467 53.2445 84.56 53.6978 85.44C54.1778 86.32 54.8178 87.0133 55.6178 87.52C56.4445 88 57.3911 88.24 58.4578 88.24ZM63.6178 92V86.84L64.3778 82.16L63.6178 77.52V72.8H68.0178V92H63.6178ZM80.9409 92.4C79.2076 92.4 77.6343 91.96 76.2209 91.08C74.8343 90.2 73.7276 89.0133 72.9009 87.52C72.1009 86 71.7009 84.3067 71.7009 82.44C71.7009 80.5467 72.1009 78.8533 72.9009 77.36C73.7276 75.84 74.8343 74.64 76.2209 73.76C77.6343 72.8533 79.2076 72.4 80.9409 72.4C82.4076 72.4 83.7009 72.72 84.8209 73.36C85.9676 73.9733 86.8743 74.8267 87.5409 75.92C88.2076 77.0133 88.5409 78.2533 88.5409 79.64V85.16C88.5409 86.5467 88.2076 87.7867 87.5409 88.88C86.9009 89.9733 86.0076 90.84 84.8609 91.48C83.7143 92.0933 82.4076 92.4 80.9409 92.4ZM81.6609 88.24C82.7543 88.24 83.7009 88 84.5009 87.52C85.3276 87.0133 85.9676 86.32 86.4209 85.44C86.8743 84.56 87.1009 83.5467 87.1009 82.4C87.1009 81.2533 86.8743 80.24 86.4209 79.36C85.9676 78.48 85.3276 77.8 84.5009 77.32C83.7009 76.8133 82.7543 76.56 81.6609 76.56C80.5943 76.56 79.6476 76.8133 78.8209 77.32C78.0209 77.8 77.3809 78.48 76.9009 79.36C76.4476 80.24 76.2209 81.2533 76.2209 82.4C76.2209 83.5467 76.4476 84.56 76.9009 85.44C77.3809 86.32 78.0209 87.0133 78.8209 87.52C79.6476 88 80.5943 88.24 81.6609 88.24ZM91.2209 92H86.8209V86.84L87.5809 82.16L86.8209 77.52V63.2H91.2209V92ZM104.904 92.4C103.037 92.4 101.344 91.96 99.8241 91.08C98.3041 90.1733 97.0907 88.96 96.1841 87.44C95.3041 85.92 94.8641 84.2267 94.8641 82.36C94.8641 80.4933 95.3041 78.8133 96.1841 77.32C97.0907 75.8267 98.3041 74.64 99.8241 73.76C101.344 72.8533 103.037 72.4 104.904 72.4C106.797 72.4 108.504 72.84 110.024 73.72C111.544 74.6 112.744 75.8 113.624 77.32C114.531 78.8133 114.984 80.4933 114.984 82.36C114.984 84.2267 114.531 85.92 113.624 87.44C112.744 88.96 111.544 90.1733 110.024 91.08C108.504 91.96 106.797 92.4 104.904 92.4ZM104.904 88.16C105.997 88.16 106.957 87.92 107.784 87.44C108.637 86.9333 109.291 86.24 109.744 85.36C110.224 84.48 110.464 83.48 110.464 82.36C110.464 81.24 110.224 80.2533 109.744 79.4C109.264 78.5467 108.611 77.88 107.784 77.4C106.957 76.8933 105.997 76.64 104.904 76.64C103.837 76.64 102.877 76.8933 102.024 77.4C101.197 77.88 100.544 78.5467 100.064 79.4C99.6107 80.2533 99.3841 81.24 99.3841 82.36C99.3841 83.48 99.6107 84.48 100.064 85.36C100.544 86.24 101.197 86.9333 102.024 87.44C102.877 87.92 103.837 88.16 104.904 88.16ZM124.923 92.4C123.856 92.4 122.83 92.2667 121.843 92C120.856 91.7067 119.95 91.3067 119.123 90.8C118.296 90.2667 117.576 89.6267 116.963 88.88L119.763 86.08C120.43 86.8533 121.19 87.44 122.043 87.84C122.923 88.2133 123.91 88.4 125.003 88.4C125.99 88.4 126.736 88.2533 127.243 87.96C127.75 87.6667 128.003 87.24 128.003 86.68C128.003 86.0933 127.763 85.64 127.283 85.32C126.803 85 126.176 84.7333 125.403 84.52C124.656 84.28 123.856 84.04 123.003 83.8C122.176 83.56 121.376 83.24 120.603 82.84C119.856 82.4133 119.243 81.84 118.763 81.12C118.283 80.4 118.043 79.4667 118.043 78.32C118.043 77.0933 118.323 76.04 118.883 75.16C119.47 74.28 120.283 73.6 121.323 73.12C122.39 72.64 123.656 72.4 125.123 72.4C126.67 72.4 128.03 72.68 129.203 73.24C130.403 73.7733 131.403 74.5867 132.203 75.68L129.403 78.48C128.843 77.7867 128.203 77.2667 127.483 76.92C126.763 76.5733 125.936 76.4 125.003 76.4C124.123 76.4 123.443 76.5333 122.963 76.8C122.483 77.0667 122.243 77.4533 122.243 77.96C122.243 78.4933 122.483 78.9067 122.963 79.2C123.443 79.4933 124.056 79.7467 124.803 79.96C125.576 80.1733 126.376 80.4133 127.203 80.68C128.056 80.92 128.856 81.2667 129.603 81.72C130.376 82.1467 131.003 82.7333 131.483 83.48C131.963 84.2 132.203 85.1467 132.203 86.32C132.203 88.1867 131.55 89.6667 130.243 90.76C128.936 91.8533 127.163 92.4 124.923 92.4Z" fill="black"/>
</svg>
