<svg width="625" height="263" viewBox="0 0 625 263" fill="none" xmlns="http://www.w3.org/2000/svg">
<g clip-path="url(#clip0_123_371)">
<path d="M329.962 42.9771C327.103 41.5765 323.866 41.3764 320.848 42.4062C317.829 43.4361 315.396 45.5664 313.99 48.4147C312.879 50.6744 312.513 53.2814 312.962 55.7648L310.906 59.9313C308.62 64.5745 310.552 70.2063 315.213 72.4837C316.24 72.9839 317.333 73.2958 318.461 73.4017C318.757 73.4312 319.058 73.4429 319.353 73.4429C320.381 73.4429 321.409 73.2723 322.407 72.931C324.788 72.1188 326.713 70.4358 327.818 68.1878L329.649 64.4627C332.16 63.3269 334.198 61.3496 335.414 58.8838C338.309 52.999 335.863 45.8606 329.956 42.9771H329.962ZM331.421 56.93C330.565 58.6661 329.094 59.9843 327.263 60.6493L326.424 60.9553L323.825 66.2399C323.24 67.4227 322.23 68.3113 320.978 68.7351C319.726 69.1647 318.379 69.0823 317.191 68.4997C316.004 67.9171 315.112 66.9108 314.687 65.6632C314.256 64.4156 314.344 63.0738 314.923 61.891L317.676 56.2945L317.475 55.5C317.032 53.7817 317.221 51.9632 318.001 50.3743C318.875 48.5912 320.405 47.2554 322.295 46.608C323.087 46.3373 323.902 46.202 324.723 46.202C324.959 46.202 325.195 46.2137 325.426 46.2373C326.318 46.3255 327.186 46.5668 328.001 46.967C331.705 48.7736 333.235 53.2461 331.421 56.9359V56.93Z" fill="white"/>
<path d="M57.3742 30.2011C55.3068 27.7883 52.6073 25.9345 49.3349 24.6928C46.0801 23.4629 42.0634 22.8391 37.4028 22.8391H14.7615L1.52588e-05 92.3686H25.9079C31.933 92.3686 37.326 91.1387 41.9394 88.7141C46.5409 86.2896 50.4867 83.0647 53.6588 79.1277C56.8308 75.1966 59.2585 70.7183 60.877 65.8162C62.4956 60.92 63.3107 55.9237 63.3107 50.9628C63.3107 46.5256 62.8322 42.5239 61.893 39.0695C60.9479 35.5975 59.4239 32.6138 57.3683 30.2011H57.3742ZM57.4333 59.2134C56.8958 62.0263 56.057 64.8334 54.9465 67.5581C53.836 70.2769 52.3888 72.9015 50.6462 75.3673C48.9037 77.8272 46.8008 80.0163 44.4026 81.8759C42.0043 83.7355 39.1985 85.2185 36.0679 86.2896C32.9431 87.3606 29.3635 87.902 25.4294 87.902H6.03101L18.8964 27.3116H36.44C40.4922 27.3116 43.9536 27.8236 46.7358 28.824C49.4884 29.8244 51.739 31.3192 53.4225 33.2788C55.1119 35.2444 56.3523 37.7278 57.1025 40.6702C57.8645 43.6362 58.2485 47.1023 58.2485 50.9628C58.2485 53.6169 57.9767 56.3886 57.4333 59.2134Z" fill="white"/>
<path d="M84.9774 27.3116H125.635L126.698 22.8391H80.8366L66.1756 92.3686H113.183L114.128 87.8961H72.2007L78.403 58.4895H116.379L117.206 54.0229H79.3481L84.9774 27.3116Z" fill="white"/>
<path d="M172.347 25.5579C170.227 24.0926 167.728 22.9921 164.922 22.2742C162.128 21.5621 159.139 21.2031 156.032 21.2031C152.925 21.2031 149.623 21.5974 146.611 22.3683C143.58 23.1451 140.875 24.3515 138.559 25.9404C136.232 27.5411 134.354 29.5596 132.977 31.943C131.595 34.3381 130.892 37.1393 130.892 40.2759C130.892 43.4125 131.495 46.0548 132.682 48.1263C133.863 50.1919 135.417 51.9162 137.289 53.2579C139.15 54.5879 141.247 55.6942 143.521 56.5358C145.784 57.3714 148.034 58.1188 150.214 58.7602C152.104 59.3252 154.183 59.9725 156.387 60.6846C158.537 61.379 160.551 62.3029 162.382 63.4328C164.196 64.5568 165.737 65.9456 166.954 67.564C168.147 69.1529 168.756 71.1773 168.756 73.5783C168.756 76.4501 168.189 78.9217 167.066 80.9344C165.944 82.947 164.402 84.6006 162.471 85.8423C160.521 87.0958 158.212 88.0315 155.595 88.6259C152.966 89.2261 150.119 89.5321 147.136 89.5321C143.527 89.5321 140.402 89.0731 137.856 88.161C135.316 87.2547 133.219 86.0365 131.625 84.5418C130.036 83.0529 128.848 81.3228 128.104 79.3984C127.354 77.4682 126.976 75.4438 126.976 73.3841V71.3656C126.976 70.3652 127.005 69.7119 127.064 69.4236L127.165 68.9351H121.943L121.914 69.3118C121.849 70.1592 121.831 70.9831 121.866 71.7658C121.896 72.5308 121.914 73.3311 121.914 74.155C121.914 77.3564 122.599 80.2223 123.946 82.6763C125.286 85.1185 127.112 87.2076 129.374 88.873C131.625 90.5326 134.3 91.8154 137.325 92.6923C140.343 93.5632 143.58 94.0105 146.953 94.0105C150.704 94.0105 154.254 93.5691 157.491 92.6982C160.746 91.8213 163.617 90.509 166.027 88.7847C168.449 87.0546 170.374 84.889 171.751 82.3408C173.127 79.7927 173.83 76.7797 173.83 73.39C173.83 70.4476 173.257 67.9347 172.134 65.928C171.018 63.933 169.535 62.2205 167.728 60.8494C165.932 59.4841 163.847 58.366 161.531 57.5185C159.251 56.6888 156.889 55.9061 154.496 55.1999C152.134 54.5643 149.8 53.8876 147.556 53.1814C145.346 52.4929 143.344 51.5807 141.613 50.4861C139.9 49.4033 138.512 48.038 137.49 46.4256C136.474 44.8308 135.96 42.7652 135.96 40.2936C135.96 37.6277 136.575 35.3385 137.78 33.4907C138.996 31.6252 140.58 30.101 142.482 28.9476C144.395 27.7883 146.563 26.9467 148.926 26.4465C153.811 25.4108 158.578 25.4461 162.896 26.4936C165.093 27.0291 167.066 27.8648 168.756 28.9888C170.433 30.101 171.786 31.531 172.784 33.2318C173.771 34.9266 174.273 36.9804 174.273 39.3343C174.273 39.8934 174.255 40.3818 174.226 40.7938C174.19 41.2175 174.113 41.906 173.983 42.8417L173.924 43.3007H178.992L179.04 42.9535C179.17 42.059 179.252 41.3175 179.282 40.7526C179.317 40.1994 179.329 39.5992 179.329 38.9459C179.329 35.9388 178.691 33.2965 177.439 31.0956C176.187 28.9005 174.474 27.0468 172.341 25.5756L172.347 25.5579Z" fill="white"/>
<path d="M241.258 38.3575C241.258 35.2326 240.756 32.6315 239.769 30.6248C238.777 28.6121 237.341 26.9997 235.516 25.8404C233.709 24.6928 231.541 23.8984 229.089 23.4747C226.662 23.0568 223.956 22.845 221.05 22.845H195.603L180.853 91.8802L180.747 92.3686H212.065C216.738 92.3686 220.737 91.7095 223.956 90.4149C227.181 89.1202 229.828 87.4371 231.824 85.4127C233.821 83.3942 235.298 81.1109 236.213 78.6275C237.129 76.1559 237.589 73.6783 237.589 71.2714C237.589 63.0385 233.75 57.9775 226.177 56.2003C230.513 55.4 234.051 53.558 236.709 50.7098C239.728 47.4731 241.264 43.3125 241.264 38.3575H241.258ZM228.629 61.3496C231.21 63.2151 232.515 66.4576 232.515 70.9831C232.515 73.4783 232.055 75.791 231.151 77.8448C230.247 79.8986 228.918 81.6935 227.199 83.1883C225.474 84.6889 223.312 85.86 220.772 86.6662C218.22 87.4842 215.285 87.8961 212.06 87.8961H186.772L193.069 58.4895H215.828C221.7 58.4895 226.006 59.4488 228.629 61.3496ZM230.985 50.0153C227.5 52.6753 222.663 54.0229 216.596 54.0229H194.014L199.732 27.3116H220.654C222.869 27.3116 224.984 27.4411 226.927 27.6941C228.829 27.9413 230.489 28.4591 231.854 29.2301C233.195 29.9892 234.258 31.1309 235.026 32.6197C235.8 34.1262 236.189 36.1859 236.189 38.74C236.189 43.5891 234.441 47.3848 230.985 50.0153Z" fill="white"/>
<path d="M261.53 23.3334L261.637 22.8391H256.551L241.707 91.8743L241.6 92.3686H285.613L286.558 87.8961H247.631L261.53 23.3334Z" fill="white"/>
<path d="M348.758 29.1241C346.342 26.5878 343.336 24.6104 339.821 23.251C336.312 21.8916 332.231 21.2031 327.694 21.2031C322.047 21.2031 316.849 22.4331 312.241 24.8576C311.71 25.1342 311.184 25.4284 310.652 25.7462C312.826 21.7622 313.352 17.1602 312.129 12.7701C310.877 8.27998 307.953 4.54899 303.895 2.25978C299.837 -0.0294258 295.117 -0.600256 290.61 0.641447C286.103 1.88904 282.358 4.80204 280.06 8.84493L279.393 10.0219L283.729 12.4641L284.396 11.2871C287.793 5.30225 295.442 3.18959 301.449 6.57338C304.356 8.20937 306.447 10.8811 307.339 14.0942C308.237 17.3073 307.823 20.6676 306.181 23.5629L298.059 37.869L298.017 37.9455C295.968 41.088 294.29 44.5601 293.02 48.2734C291.272 53.3932 290.392 58.7602 290.392 64.2331C290.392 68.6821 291.035 72.7956 292.3 76.4442C293.57 80.1046 295.448 83.2824 297.893 85.8776C300.339 88.4787 303.381 90.5031 306.931 91.8978C310.475 93.2925 314.604 93.9928 319.206 93.9928C324.918 93.9928 330.134 92.6805 334.717 90.0912C339.283 87.5077 343.206 84.1063 346.384 79.9751C349.55 75.8498 352.013 71.1478 353.691 65.9927C355.368 60.8435 356.225 55.6177 356.225 50.4685C356.225 46.0195 355.581 41.9413 354.317 38.3516C353.047 34.7559 351.18 31.6487 348.77 29.1124L348.758 29.1241ZM348.894 64.7451C347.4 69.3353 345.226 73.5194 342.438 77.1857C339.65 80.8461 336.212 83.8532 332.225 86.1248C328.249 88.3905 323.701 89.538 318.71 89.538C314.982 89.538 311.639 88.9201 308.774 87.696C305.909 86.472 303.458 84.7418 301.479 82.5527C299.494 80.3576 297.982 77.6859 296.978 74.614C295.968 71.5304 295.454 68.076 295.454 64.345C295.454 59.2134 296.245 54.2524 297.799 49.6034C298.933 46.2196 300.428 43.0771 302.241 40.27L303.269 38.7576C303.635 38.2515 304.007 37.7454 304.397 37.257C307.215 33.7261 310.664 30.8778 314.651 28.8005C318.633 26.7231 323.152 25.6697 328.084 25.6697C331.935 25.6697 335.344 26.3053 338.208 27.5588C341.067 28.8122 343.489 30.5895 345.403 32.8375C347.323 35.0914 348.776 37.7984 349.721 40.8762C350.672 43.9657 351.151 47.3554 351.151 50.9569C351.151 55.5118 350.394 60.1491 348.9 64.7392L348.894 64.7451Z" fill="white"/>
<path d="M424.97 28.2002C422.554 25.6638 419.547 23.6865 416.032 22.3271C412.524 20.9677 408.442 20.2792 403.906 20.2792C398.258 20.2792 393.06 21.5091 388.453 23.9337C383.851 26.3524 379.894 29.6126 376.686 33.6143C373.485 37.616 370.974 42.2356 369.232 47.3554C367.483 52.4752 366.603 57.8422 366.603 63.3151C366.603 67.7641 367.247 71.8776 368.511 75.5262C369.781 79.1866 371.659 82.3644 374.105 84.9596C376.55 87.5607 379.593 89.5851 383.143 90.9798C386.687 92.3745 390.816 93.0748 395.417 93.0748C398.914 93.0748 402.193 92.5981 405.152 91.6624C407.999 90.7621 410.657 89.4909 413.055 87.8961L422.873 97L425.938 93.7104L416.611 85.0891C419.057 83.0882 421.266 80.7519 423.18 78.1391C425.188 75.3967 426.889 72.4249 428.248 69.3059C429.601 66.1928 430.652 62.9091 431.361 59.5547C432.07 56.2062 432.43 52.8401 432.43 49.5563C432.43 45.1074 431.786 41.0292 430.522 37.4394C429.252 33.8438 427.386 30.7307 424.976 28.2002H424.97ZM426.399 59.0957C425.761 62.1323 424.816 65.0865 423.576 67.87C422.341 70.6535 420.793 73.3017 418.986 75.7321C417.255 78.0626 415.276 80.1164 413.109 81.8406L403.793 73.1369L400.728 76.4266L409.423 84.5182C407.343 85.7717 405.14 86.7662 402.872 87.4665C400.444 88.2198 397.768 88.6023 394.927 88.6023C391.2 88.6023 387.856 87.9844 384.991 86.7604C382.127 85.5363 379.675 83.8062 377.696 81.617C375.712 79.422 374.199 76.7502 373.195 73.6783C372.185 70.5947 371.671 67.1403 371.671 63.4093C371.671 58.2777 372.463 53.3167 374.016 48.6677C375.57 44.0187 377.791 39.8699 380.614 36.3272C383.432 32.7963 386.882 29.948 390.869 27.8707C394.85 25.7933 399.369 24.7399 404.301 24.7399C408.153 24.7399 411.561 25.3755 414.426 26.629C417.285 27.8824 419.707 29.6596 421.62 31.9077C423.54 34.1616 424.993 36.8686 425.938 39.9464C426.889 43.0359 427.368 46.4256 427.368 50.0271C427.368 52.9931 427.043 56.0414 426.411 59.0898L426.399 59.0957Z" fill="white"/>
<path d="M496.308 21.9152L486.579 67.2756C485.882 70.4417 484.913 73.3782 483.708 75.997C482.509 78.6039 480.932 80.8578 479.012 82.7057C477.099 84.5535 474.753 86.013 472.048 87.0487C469.337 88.0844 466.035 88.6082 462.243 88.6082C459.838 88.6082 457.434 88.3022 455.101 87.7078C452.78 87.1134 450.694 86.1954 448.905 84.9772C447.127 83.765 445.674 82.1761 444.587 80.2517C443.5 78.3391 442.95 75.9734 442.95 73.2311C442.95 71.2067 443.08 69.4648 443.328 68.0583C443.577 66.6636 443.89 65.0158 444.291 63.0209L453.093 21.9152H448.007L439.247 62.8443C438.928 64.239 438.615 65.8691 438.325 67.6817C438.036 69.4883 437.888 71.1302 437.888 72.5602C437.888 76.0735 438.52 79.1571 439.761 81.7347C441.007 84.3123 442.732 86.4661 444.9 88.1374C447.056 89.7969 449.59 91.0504 452.425 91.8625C455.255 92.6687 458.326 93.0807 461.569 93.0807C466.094 93.0807 470.069 92.5569 473.377 91.5212C476.703 90.4855 479.597 88.8671 481.984 86.7192C484.364 84.5771 486.343 81.8759 487.873 78.704C489.391 75.5438 490.655 71.7952 491.624 67.5463L501.388 21.9211H496.302L496.308 21.9152Z" fill="white"/>
<path d="M592.999 21.9152H587.99L545.956 90.0206L546.6 86.9722H504.672L510.874 57.5656H548.85L549.677 53.0931H511.82L517.443 26.3818H558.106L559.17 21.9093H513.308L498.647 91.4388H550.87L564.202 69.4H596.956L600.92 91.4388H606L592.999 21.9093V21.9152ZM566.914 64.9334L589.455 27.6882L596.135 64.9334H566.914Z" fill="white"/>
</g>
<g clip-path="url(#clip1_123_371)">
<path d="M29.2168 123.333V131.69H20.0641V154.22C20.0641 156.329 20.4142 157.738 21.1229 158.447C21.8317 159.155 23.2317 159.505 25.3493 159.505C26.0493 159.505 26.723 159.479 27.3705 159.418C28.0181 159.357 28.6306 159.269 29.2168 159.155V168.833C28.1581 169.008 26.9855 169.122 25.6993 169.183C24.4042 169.244 23.1442 169.27 21.9104 169.27C19.9766 169.27 18.1391 169.139 16.4066 168.877C14.674 168.614 13.1515 168.098 11.8302 167.337C10.509 166.575 9.46769 165.49 8.70642 164.082C7.94516 162.673 7.56015 160.827 7.56015 158.534V131.698H0V123.342H7.5689V109.692H20.0641V123.333H29.2168Z" fill="#00DAFF"/>
<path d="M66.0026 168.833V162.498H65.7401C64.1563 165.14 62.1 167.048 59.5799 168.22C57.0599 169.393 54.4786 169.979 51.836 169.979C48.4935 169.979 45.7459 169.542 43.6109 168.658C41.4671 167.774 39.787 166.532 38.5533 164.922C37.3195 163.312 36.4532 161.343 35.9545 159.024C35.4557 156.705 35.2107 154.142 35.2107 151.324V123.333H47.7059V149.032C47.7059 152.786 48.2922 155.585 49.4647 157.44C50.6373 159.287 52.7198 160.214 55.7124 160.214C59.1162 160.214 61.575 159.199 63.1063 157.178C64.6288 155.157 65.3988 151.823 65.3988 147.186V123.333H77.894V168.833H66.0113H66.0026Z" fill="#00DAFF"/>
<path d="M123.736 123.333V129.668H123.999C125.582 127.026 127.639 125.11 130.159 123.902C132.679 122.703 135.26 122.1 137.903 122.1C141.245 122.1 143.984 122.555 146.128 123.465C148.272 124.375 149.96 125.635 151.186 127.253C152.419 128.863 153.286 130.832 153.784 133.151C154.283 135.47 154.528 138.033 154.528 140.851V168.833H142.033V143.134C142.033 139.381 141.447 136.581 140.274 134.735C139.102 132.888 137.019 131.961 134.026 131.961C130.623 131.961 128.155 132.976 126.633 134.997C125.11 137.018 124.34 140.352 124.34 144.989V168.842H111.845V123.333H123.727H123.736Z" fill="#00DAFF"/>
<path d="M177.419 157.922C179.3 159.742 181.995 160.652 185.512 160.652C188.032 160.652 190.203 160.022 192.023 158.762C193.843 157.502 194.954 156.163 195.365 154.754H206.364C204.605 160.214 201.902 164.117 198.27 166.462C194.63 168.807 190.229 169.979 185.066 169.979C181.487 169.979 178.259 169.41 175.388 168.264C172.51 167.118 170.077 165.49 168.082 163.382C166.087 161.273 164.547 158.744 163.462 155.813C162.377 152.882 161.834 149.653 161.834 146.136C161.834 142.618 162.394 139.564 163.506 136.633C164.617 133.702 166.201 131.165 168.257 129.021C170.313 126.877 172.755 125.188 175.607 123.963C178.451 122.73 181.601 122.117 185.066 122.117C188.942 122.117 192.311 122.861 195.19 124.357C198.069 125.853 200.423 127.866 202.278 130.386C204.124 132.906 205.463 135.785 206.285 139.013C207.108 142.242 207.397 145.611 207.169 149.137H174.338C174.513 153.188 175.537 156.119 177.419 157.939V157.922ZM191.541 133.982C190.045 132.337 187.77 131.515 184.716 131.515C182.721 131.515 181.067 131.856 179.746 132.53C178.425 133.203 177.366 134.043 176.579 135.041C175.791 136.038 175.231 137.097 174.907 138.208C174.583 139.328 174.391 140.317 174.338 141.201H194.665C194.079 138.033 193.038 135.627 191.541 133.982Z" fill="#00DAFF"/>
<path d="M257.553 172.175C257.054 174.52 255.986 176.708 254.341 178.729C252.696 180.75 250.325 182.465 247.21 183.874C244.104 185.283 239.93 185.983 234.715 185.983C232.483 185.983 230.208 185.703 227.898 185.143C225.579 184.583 223.471 183.716 221.563 182.544C219.656 181.371 218.072 179.858 216.812 178.011C215.552 176.165 214.834 173.951 214.659 171.37H227.067C227.653 173.715 228.8 175.343 230.497 176.253C232.195 177.163 234.163 177.618 236.395 177.618C239.912 177.618 242.476 176.559 244.095 174.45C245.705 172.341 246.484 169.664 246.431 166.444V160.459H246.256C244.909 162.865 242.984 164.642 240.49 165.779C237.996 166.925 235.371 167.494 232.615 167.494C229.211 167.494 226.279 166.89 223.812 165.692C221.344 164.493 219.323 162.848 217.739 160.765C216.156 158.683 214.992 156.25 214.265 153.459C213.53 150.677 213.163 147.728 213.163 144.613C213.163 141.682 213.592 138.847 214.441 136.117C215.289 133.387 216.541 130.981 218.177 128.898C219.822 126.816 221.861 125.162 224.293 123.928C226.726 122.695 229.526 122.082 232.693 122.082C235.686 122.082 238.311 122.642 240.569 123.753C242.826 124.865 244.716 126.746 246.247 129.388H246.422V123.316H258.305V165.91C258.305 167.73 258.051 169.813 257.561 172.158L257.553 172.175ZM240.437 157.038C241.785 156.338 242.905 155.393 243.78 154.22C244.664 153.048 245.32 151.709 245.757 150.213C246.195 148.717 246.414 147.151 246.414 145.506C246.414 143.624 246.239 141.857 245.889 140.186C245.539 138.514 244.952 137.036 244.13 135.741C243.307 134.455 242.222 133.422 240.875 132.661C239.527 131.9 237.821 131.515 235.773 131.515C234.015 131.515 232.501 131.865 231.241 132.573C229.981 133.273 228.922 134.236 228.073 135.435C227.225 136.633 226.603 138.016 226.227 139.573C225.842 141.131 225.658 142.758 225.658 144.456C225.658 146.153 225.816 147.728 226.139 149.338C226.463 150.957 227.023 152.401 227.811 153.695C228.607 154.99 229.648 156.04 230.935 156.863C232.221 157.685 233.84 158.097 235.773 158.097C237.532 158.097 239.09 157.747 240.437 157.038Z" fill="#00DAFF"/>
<path d="M268.595 136.231C269.707 133.265 271.29 130.745 273.347 128.662C275.403 126.58 277.862 124.97 280.741 123.823C283.611 122.677 286.839 122.108 290.418 122.108C293.997 122.108 297.243 122.677 300.14 123.823C303.045 124.97 305.521 126.58 307.577 128.662C309.634 130.745 311.217 133.265 312.329 136.231C313.44 139.197 314 142.496 314 146.136C314 149.776 313.44 153.057 312.329 155.997C311.217 158.928 309.634 161.439 307.577 163.522C305.521 165.604 303.045 167.205 300.14 168.317C297.235 169.428 293.997 169.988 290.418 169.988C286.839 169.988 283.611 169.428 280.741 168.317C277.862 167.205 275.403 165.604 273.347 163.522C271.29 161.439 269.707 158.928 268.595 155.997C267.484 153.066 266.924 149.776 266.924 146.136C266.924 142.496 267.484 139.197 268.595 136.231ZM279.944 151.456C280.294 153.188 280.898 154.745 281.747 156.119C282.596 157.502 283.724 158.595 285.133 159.418C286.542 160.24 288.301 160.652 290.41 160.652C292.518 160.652 294.295 160.24 295.73 159.418C297.165 158.595 298.311 157.493 299.16 156.119C300.008 154.745 300.612 153.188 300.962 151.456C301.312 149.723 301.487 147.947 301.487 146.136C301.487 144.324 301.312 142.531 300.962 140.763C300.612 138.996 300.008 137.447 299.16 136.1C298.311 134.752 297.165 133.65 295.73 132.801C294.295 131.952 292.518 131.523 290.41 131.523C288.301 131.523 286.533 131.952 285.133 132.801C283.724 133.65 282.596 134.752 281.747 136.1C280.898 137.447 280.294 139.004 279.944 140.763C279.594 142.522 279.419 144.316 279.419 146.136C279.419 147.956 279.594 149.732 279.944 151.456Z" fill="#00DAFF"/>
<path d="M343.838 131.523C341.843 131.523 340.172 131.978 338.824 132.888C337.477 133.798 336.374 134.971 335.525 136.406C334.677 137.841 334.073 139.424 333.723 141.157C333.373 142.889 333.198 144.604 333.198 146.302C333.198 147.999 333.373 149.618 333.723 151.316C334.073 153.022 334.65 154.562 335.438 155.935C336.225 157.318 337.302 158.447 338.649 159.322C339.997 160.205 341.642 160.643 343.576 160.643C346.568 160.643 348.869 159.803 350.488 158.132C352.098 156.46 353.113 154.212 353.525 151.403H365.582C364.76 157.449 362.415 162.052 358.538 165.219C354.662 168.387 349.709 169.97 343.663 169.97C340.259 169.97 337.135 169.402 334.292 168.255C331.448 167.109 329.024 165.517 327.029 163.46C325.034 161.404 323.476 158.954 322.365 156.11C321.254 153.267 320.694 150.143 320.694 146.739C320.694 143.336 321.21 139.949 322.234 136.931C323.258 133.912 324.771 131.296 326.767 129.1C328.762 126.903 331.194 125.18 334.073 123.955C336.952 122.721 340.233 122.108 343.934 122.108C346.629 122.108 349.228 122.458 351.722 123.167C354.216 123.867 356.447 124.943 358.407 126.378C360.376 127.813 361.968 129.607 363.202 131.751C364.436 133.895 365.136 136.432 365.311 139.363H353.078C352.256 134.14 349.176 131.532 343.838 131.532V131.523Z" fill="#00DAFF"/>
<path d="M372.967 116.299V106H385.463V116.299H372.967ZM385.463 123.342V168.842H372.967V123.333H385.463V123.342Z" fill="#00DAFF"/>
<path d="M395.587 136.231C396.698 133.265 398.282 130.745 400.338 128.662C402.394 126.58 404.853 124.97 407.732 123.823C410.602 122.677 413.831 122.108 417.41 122.108C420.988 122.108 424.235 122.677 427.131 123.823C430.036 124.97 432.512 126.58 434.569 128.662C436.625 130.745 438.209 133.265 439.32 136.231C440.431 139.197 440.991 142.496 440.991 146.136C440.991 149.776 440.431 153.057 439.32 155.997C438.209 158.928 436.625 161.439 434.569 163.522C432.512 165.604 430.036 167.205 427.131 168.317C424.226 169.428 420.988 169.988 417.41 169.988C413.831 169.988 410.602 169.428 407.732 168.317C404.853 167.205 402.394 165.604 400.338 163.522C398.282 161.439 396.698 158.928 395.587 155.997C394.475 153.066 393.915 149.776 393.915 146.136C393.915 142.496 394.475 139.197 395.587 136.231ZM406.936 151.456C407.286 153.188 407.889 154.745 408.738 156.119C409.587 157.502 410.716 158.595 412.124 159.418C413.533 160.24 415.292 160.652 417.401 160.652C419.51 160.652 421.286 160.24 422.721 159.418C424.156 158.595 425.302 157.493 426.151 156.119C427 154.745 427.603 153.188 427.953 151.456C428.303 149.723 428.479 147.947 428.479 146.136C428.479 144.324 428.303 142.531 427.953 140.763C427.603 138.996 427 137.447 426.151 136.1C425.302 134.752 424.156 133.65 422.721 132.801C421.286 131.952 419.51 131.523 417.401 131.523C415.292 131.523 413.524 131.952 412.124 132.801C410.716 133.65 409.587 134.752 408.738 136.1C407.889 137.447 407.286 139.004 406.936 140.763C406.586 142.522 406.411 144.316 406.411 146.136C406.411 147.956 406.586 149.732 406.936 151.456Z" fill="#00DAFF"/>
</g>
<path d="M11.91 223.3C10.41 223.3 9.02 223.03 7.74 222.49C6.46 221.93 5.34 221.16 4.38 220.18C3.44 219.2 2.71 218.06 2.19 216.76C1.67 215.46 1.41 214.07 1.41 212.59C1.41 211.09 1.67 209.69 2.19 208.39C2.71 207.09 3.44 205.96 4.38 205C5.34 204.02 6.45 203.26 7.71 202.72C8.99 202.16 10.38 201.88 11.88 201.88C13.52 201.88 14.96 202.16 16.2 202.72C17.44 203.28 18.54 204.04 19.5 205L17.55 206.95C16.89 206.21 16.08 205.63 15.12 205.21C14.18 204.79 13.1 204.58 11.88 204.58C10.78 204.58 9.77 204.78 8.85 205.18C7.93 205.56 7.13 206.11 6.45 206.83C5.77 207.55 5.24 208.4 4.86 209.38C4.5 210.36 4.32 211.43 4.32 212.59C4.32 213.75 4.5 214.82 4.86 215.8C5.24 216.78 5.77 217.63 6.45 218.35C7.13 219.07 7.93 219.63 8.85 220.03C9.77 220.41 10.78 220.6 11.88 220.6C13.18 220.6 14.31 220.39 15.27 219.97C16.23 219.53 17.04 218.94 17.7 218.2L19.65 220.12C18.69 221.12 17.56 221.9 16.26 222.46C14.98 223.02 13.53 223.3 11.91 223.3ZM28.6463 223.3C27.2463 223.3 25.9863 222.97 24.8663 222.31C23.7463 221.65 22.8563 220.76 22.1963 219.64C21.5363 218.5 21.2063 217.23 21.2063 215.83C21.2063 214.45 21.5363 213.21 22.1963 212.11C22.8563 210.99 23.7463 210.1 24.8663 209.44C25.9863 208.78 27.2463 208.45 28.6463 208.45C30.0263 208.45 31.2763 208.78 32.3963 209.44C33.5363 210.08 34.4363 210.96 35.0963 212.08C35.7563 213.2 36.0863 214.45 36.0863 215.83C36.0863 217.23 35.7563 218.5 35.0963 219.64C34.4363 220.76 33.5363 221.65 32.3963 222.31C31.2763 222.97 30.0263 223.3 28.6463 223.3ZM28.6463 220.69C29.5463 220.69 30.3463 220.48 31.0463 220.06C31.7463 219.64 32.2963 219.07 32.6963 218.35C33.0963 217.61 33.2963 216.77 33.2963 215.83C33.2963 214.91 33.0863 214.09 32.6663 213.37C32.2663 212.65 31.7163 212.09 31.0163 211.69C30.3363 211.27 29.5463 211.06 28.6463 211.06C27.7463 211.06 26.9463 211.27 26.2463 211.69C25.5463 212.09 24.9963 212.65 24.5963 213.37C24.1963 214.09 23.9963 214.91 23.9963 215.83C23.9963 216.77 24.1963 217.61 24.5963 218.35C24.9963 219.07 25.5463 219.64 26.2463 220.06C26.9463 220.48 27.7463 220.69 28.6463 220.69ZM49.2084 223V214.69C49.2084 213.61 48.8684 212.72 48.1884 212.02C47.5084 211.32 46.6284 210.97 45.5484 210.97C44.8284 210.97 44.1884 211.13 43.6284 211.45C43.0684 211.77 42.6284 212.21 42.3084 212.77C41.9884 213.33 41.8284 213.97 41.8284 214.69L40.7184 214.06C40.7184 212.98 40.9584 212.02 41.4384 211.18C41.9184 210.34 42.5884 209.68 43.4484 209.2C44.3084 208.7 45.2784 208.45 46.3584 208.45C47.4384 208.45 48.3884 208.72 49.2084 209.26C50.0484 209.8 50.7084 210.51 51.1884 211.39C51.6684 212.25 51.9084 213.17 51.9084 214.15V223H49.2084ZM39.1284 223V208.75H41.8284V223H39.1284ZM68.4042 223.3C66.9842 223.3 65.7042 222.98 64.5642 222.34C63.4242 221.68 62.5242 220.79 61.8642 219.67C61.2042 218.55 60.8742 217.28 60.8742 215.86C60.8742 214.46 61.1942 213.2 61.8342 212.08C62.4942 210.96 63.3742 210.08 64.4742 209.44C65.5942 208.78 66.8442 208.45 68.2242 208.45C69.5442 208.45 70.7042 208.75 71.7042 209.35C72.7242 209.95 73.5142 210.78 74.0742 211.84C74.6542 212.9 74.9442 214.1 74.9442 215.44C74.9442 215.64 74.9342 215.86 74.9142 216.1C74.8942 216.32 74.8542 216.58 74.7942 216.88H62.7642V214.63H73.3542L72.3642 215.5C72.3642 214.54 72.1942 213.73 71.8542 213.07C71.5142 212.39 71.0342 211.87 70.4142 211.51C69.7942 211.13 69.0442 210.94 68.1642 210.94C67.2442 210.94 66.4342 211.14 65.7342 211.54C65.0342 211.94 64.4942 212.5 64.1142 213.22C63.7342 213.94 63.5442 214.79 63.5442 215.77C63.5442 216.77 63.7442 217.65 64.1442 218.41C64.5442 219.15 65.1142 219.73 65.8542 220.15C66.5942 220.55 67.4442 220.75 68.4042 220.75C69.2042 220.75 69.9342 220.61 70.5942 220.33C71.2742 220.05 71.8542 219.63 72.3342 219.07L74.0742 220.84C73.3942 221.64 72.5542 222.25 71.5542 222.67C70.5742 223.09 69.5242 223.3 68.4042 223.3ZM77.8882 223V201.58H80.5882V223H77.8882ZM93.1488 214.9V212.44H98.8188C99.5988 212.44 100.289 212.28 100.889 211.96C101.509 211.64 101.989 211.19 102.329 210.61C102.689 210.03 102.869 209.34 102.869 208.54C102.869 207.74 102.689 207.05 102.329 206.47C101.989 205.89 101.509 205.44 100.889 205.12C100.289 204.8 99.5988 204.64 98.8188 204.64H93.1488V202.18H98.9988C100.279 202.18 101.419 202.44 102.419 202.96C103.439 203.48 104.239 204.22 104.819 205.18C105.419 206.12 105.719 207.24 105.719 208.54C105.719 209.82 105.419 210.94 104.819 211.9C104.239 212.84 103.439 213.58 102.419 214.12C101.419 214.64 100.279 214.9 98.9988 214.9H93.1488ZM91.2588 223V202.18H94.0788V223H91.2588ZM108.972 223V208.75H111.672V223H108.972ZM111.672 214.87L110.652 214.42C110.652 212.6 111.072 211.15 111.912 210.07C112.752 208.99 113.962 208.45 115.542 208.45C116.262 208.45 116.912 208.58 117.492 208.84C118.072 209.08 118.612 209.49 119.112 210.07L117.342 211.9C117.042 211.58 116.712 211.35 116.352 211.21C115.992 211.07 115.572 211 115.092 211C114.092 211 113.272 211.32 112.632 211.96C111.992 212.6 111.672 213.57 111.672 214.87ZM127.054 223.3C125.654 223.3 124.394 222.97 123.274 222.31C122.154 221.65 121.264 220.76 120.604 219.64C119.944 218.5 119.614 217.23 119.614 215.83C119.614 214.45 119.944 213.21 120.604 212.11C121.264 210.99 122.154 210.1 123.274 209.44C124.394 208.78 125.654 208.45 127.054 208.45C128.434 208.45 129.684 208.78 130.804 209.44C131.944 210.08 132.844 210.96 133.504 212.08C134.164 213.2 134.494 214.45 134.494 215.83C134.494 217.23 134.164 218.5 133.504 219.64C132.844 220.76 131.944 221.65 130.804 222.31C129.684 222.97 128.434 223.3 127.054 223.3ZM127.054 220.69C127.954 220.69 128.754 220.48 129.454 220.06C130.154 219.64 130.704 219.07 131.104 218.35C131.504 217.61 131.704 216.77 131.704 215.83C131.704 214.91 131.494 214.09 131.074 213.37C130.674 212.65 130.124 212.09 129.424 211.69C128.744 211.27 127.954 211.06 127.054 211.06C126.154 211.06 125.354 211.27 124.654 211.69C123.954 212.09 123.404 212.65 123.004 213.37C122.604 214.09 122.404 214.91 122.404 215.83C122.404 216.77 122.604 217.61 123.004 218.35C123.404 219.07 123.954 219.64 124.654 220.06C125.354 220.48 126.154 220.69 127.054 220.69ZM143.447 229.27C141.987 229.27 140.687 229 139.547 228.46C138.427 227.92 137.527 227.16 136.847 226.18L138.587 224.41C139.167 225.15 139.857 225.71 140.657 226.09C141.457 226.49 142.407 226.69 143.507 226.69C144.967 226.69 146.117 226.3 146.957 225.52C147.817 224.76 148.247 223.73 148.247 222.43V218.89L148.727 215.68L148.247 212.5V208.75H150.947V222.43C150.947 223.79 150.627 224.98 149.987 226C149.367 227.02 148.487 227.82 147.347 228.4C146.227 228.98 144.927 229.27 143.447 229.27ZM143.447 222.76C142.147 222.76 140.977 222.45 139.937 221.83C138.917 221.21 138.107 220.36 137.507 219.28C136.907 218.18 136.607 216.95 136.607 215.59C136.607 214.23 136.907 213.02 137.507 211.96C138.107 210.88 138.917 210.03 139.937 209.41C140.977 208.77 142.147 208.45 143.447 208.45C144.567 208.45 145.557 208.67 146.417 209.11C147.277 209.55 147.957 210.17 148.457 210.97C148.977 211.75 149.257 212.67 149.297 213.73V217.51C149.237 218.55 148.947 219.47 148.427 220.27C147.927 221.05 147.247 221.66 146.387 222.1C145.527 222.54 144.547 222.76 143.447 222.76ZM143.987 220.21C144.867 220.21 145.637 220.02 146.297 219.64C146.977 219.26 147.497 218.73 147.857 218.05C148.217 217.35 148.397 216.54 148.397 215.62C148.397 214.7 148.207 213.9 147.827 213.22C147.467 212.52 146.957 211.98 146.297 211.6C145.637 211.2 144.857 211 143.957 211C143.057 211 142.267 211.2 141.587 211.6C140.907 211.98 140.367 212.52 139.967 213.22C139.587 213.9 139.397 214.69 139.397 215.59C139.397 216.49 139.587 217.29 139.967 217.99C140.367 218.69 140.907 219.24 141.587 219.64C142.287 220.02 143.087 220.21 143.987 220.21ZM154.91 223V208.75H157.61V223H154.91ZM157.61 214.87L156.59 214.42C156.59 212.6 157.01 211.15 157.85 210.07C158.69 208.99 159.9 208.45 161.48 208.45C162.2 208.45 162.85 208.58 163.43 208.84C164.01 209.08 164.55 209.49 165.05 210.07L163.28 211.9C162.98 211.58 162.65 211.35 162.29 211.21C161.93 211.07 161.51 211 161.03 211C160.03 211 159.21 211.32 158.57 211.96C157.93 212.6 157.61 213.57 157.61 214.87ZM172.542 223.3C171.242 223.3 170.062 222.98 169.002 222.34C167.942 221.68 167.102 220.79 166.482 219.67C165.882 218.55 165.582 217.29 165.582 215.89C165.582 214.49 165.882 213.23 166.482 212.11C167.102 210.99 167.932 210.1 168.972 209.44C170.032 208.78 171.222 208.45 172.542 208.45C173.622 208.45 174.582 208.68 175.422 209.14C176.282 209.58 176.972 210.2 177.492 211C178.012 211.78 178.302 212.69 178.362 213.73V218.02C178.302 219.04 178.012 219.95 177.492 220.75C176.992 221.55 176.312 222.18 175.452 222.64C174.612 223.08 173.642 223.3 172.542 223.3ZM172.992 220.75C174.332 220.75 175.412 220.3 176.232 219.4C177.052 218.48 177.462 217.31 177.462 215.89C177.462 214.91 177.272 214.06 176.892 213.34C176.532 212.6 176.012 212.03 175.332 211.63C174.652 211.21 173.862 211 172.962 211C172.062 211 171.262 211.21 170.562 211.63C169.882 212.05 169.342 212.63 168.942 213.37C168.562 214.09 168.372 214.92 168.372 215.86C168.372 216.82 168.562 217.67 168.942 218.41C169.342 219.13 169.892 219.7 170.592 220.12C171.292 220.54 172.092 220.75 172.992 220.75ZM177.282 223V219.16L177.792 215.68L177.282 212.23V208.75H180.012V223H177.282ZM183.943 223V208.75H186.643V223H183.943ZM193.573 223V214.39C193.573 213.33 193.243 212.5 192.583 211.9C191.943 211.28 191.133 210.97 190.153 210.97C189.493 210.97 188.903 211.11 188.383 211.39C187.863 211.67 187.443 212.06 187.123 212.56C186.803 213.06 186.643 213.66 186.643 214.36L185.533 213.82C185.533 212.74 185.763 211.8 186.223 211C186.703 210.2 187.353 209.58 188.173 209.14C188.993 208.68 189.913 208.45 190.933 208.45C191.933 208.45 192.833 208.67 193.633 209.11C194.453 209.55 195.093 210.17 195.553 210.97C196.033 211.77 196.273 212.72 196.273 213.82V223H193.573ZM203.203 223V214.39C203.203 213.33 202.873 212.5 202.213 211.9C201.573 211.28 200.773 210.97 199.813 210.97C199.153 210.97 198.553 211.11 198.013 211.39C197.493 211.67 197.073 212.06 196.753 212.56C196.433 213.06 196.273 213.66 196.273 214.36L194.743 213.82C194.803 212.72 195.093 211.78 195.613 211C196.153 210.2 196.843 209.58 197.683 209.14C198.523 208.68 199.443 208.45 200.443 208.45C201.483 208.45 202.413 208.67 203.233 209.11C204.053 209.55 204.703 210.17 205.183 210.97C205.683 211.77 205.933 212.73 205.933 213.85V223H203.203ZM215.667 223.3C214.367 223.3 213.187 222.98 212.127 222.34C211.067 221.68 210.227 220.79 209.607 219.67C209.007 218.55 208.707 217.29 208.707 215.89C208.707 214.49 209.007 213.23 209.607 212.11C210.227 210.99 211.057 210.1 212.097 209.44C213.157 208.78 214.347 208.45 215.667 208.45C216.747 208.45 217.707 208.68 218.547 209.14C219.407 209.58 220.097 210.2 220.617 211C221.137 211.78 221.427 212.69 221.487 213.73V218.02C221.427 219.04 221.137 219.95 220.617 220.75C220.117 221.55 219.437 222.18 218.577 222.64C217.737 223.08 216.767 223.3 215.667 223.3ZM216.117 220.75C217.457 220.75 218.537 220.3 219.357 219.4C220.177 218.48 220.587 217.31 220.587 215.89C220.587 214.91 220.397 214.06 220.017 213.34C219.657 212.6 219.137 212.03 218.457 211.63C217.777 211.21 216.987 211 216.087 211C215.187 211 214.387 211.21 213.687 211.63C213.007 212.05 212.467 212.63 212.067 213.37C211.687 214.09 211.497 214.92 211.497 215.86C211.497 216.82 211.687 217.67 212.067 218.41C212.467 219.13 213.017 219.7 213.717 220.12C214.417 220.54 215.217 220.75 216.117 220.75ZM220.407 223V219.16L220.917 215.68L220.407 212.23V208.75H223.137V223H220.407ZM239.338 223.3C238.018 223.3 236.838 222.98 235.798 222.34C234.758 221.68 233.928 220.79 233.308 219.67C232.708 218.55 232.408 217.29 232.408 215.89C232.408 214.49 232.708 213.23 233.308 212.11C233.928 210.99 234.758 210.1 235.798 209.44C236.838 208.78 238.018 208.45 239.338 208.45C240.398 208.45 241.358 208.68 242.218 209.14C243.078 209.58 243.768 210.2 244.288 211C244.828 211.78 245.128 212.69 245.188 213.73V218.02C245.128 219.04 244.838 219.95 244.318 220.75C243.798 221.55 243.108 222.18 242.248 222.64C241.388 223.08 240.418 223.3 239.338 223.3ZM239.788 220.75C240.688 220.75 241.468 220.54 242.128 220.12C242.808 219.7 243.338 219.13 243.718 218.41C244.098 217.67 244.288 216.83 244.288 215.89C244.288 214.91 244.088 214.06 243.688 213.34C243.308 212.62 242.778 212.05 242.098 211.63C241.438 211.21 240.658 211 239.758 211C238.858 211 238.068 211.21 237.388 211.63C236.708 212.05 236.168 212.63 235.768 213.37C235.388 214.09 235.198 214.92 235.198 215.86C235.198 216.82 235.388 217.67 235.768 218.41C236.168 219.13 236.708 219.7 237.388 220.12C238.088 220.54 238.888 220.75 239.788 220.75ZM246.838 223H244.108V219.16L244.618 215.68L244.108 212.23V201.58H246.838V223ZM257.369 223.3C255.949 223.3 254.669 222.98 253.529 222.34C252.389 221.68 251.489 220.79 250.829 219.67C250.169 218.55 249.839 217.28 249.839 215.86C249.839 214.46 250.159 213.2 250.799 212.08C251.459 210.96 252.339 210.08 253.439 209.44C254.559 208.78 255.809 208.45 257.189 208.45C258.509 208.45 259.669 208.75 260.669 209.35C261.689 209.95 262.479 210.78 263.039 211.84C263.619 212.9 263.909 214.1 263.909 215.44C263.909 215.64 263.899 215.86 263.879 216.1C263.859 216.32 263.819 216.58 263.759 216.88H251.729V214.63H262.319L261.329 215.5C261.329 214.54 261.159 213.73 260.819 213.07C260.479 212.39 259.999 211.87 259.379 211.51C258.759 211.13 258.009 210.94 257.129 210.94C256.209 210.94 255.399 211.14 254.699 211.54C253.999 211.94 253.459 212.5 253.079 213.22C252.699 213.94 252.509 214.79 252.509 215.77C252.509 216.77 252.709 217.65 253.109 218.41C253.509 219.15 254.079 219.73 254.819 220.15C255.559 220.55 256.409 220.75 257.369 220.75C258.169 220.75 258.899 220.61 259.559 220.33C260.239 220.05 260.819 219.63 261.299 219.07L263.039 220.84C262.359 221.64 261.519 222.25 260.519 222.67C259.539 223.09 258.489 223.3 257.369 223.3ZM273.573 223V202.18H276.393V223H273.573ZM275.493 213.85V211.27H286.353V213.85H275.493ZM275.493 204.76V202.18H286.863V204.76H275.493ZM296.01 223.3C294.61 223.3 293.35 222.97 292.23 222.31C291.11 221.65 290.22 220.76 289.56 219.64C288.9 218.5 288.57 217.23 288.57 215.83C288.57 214.45 288.9 213.21 289.56 212.11C290.22 210.99 291.11 210.1 292.23 209.44C293.35 208.78 294.61 208.45 296.01 208.45C297.39 208.45 298.64 208.78 299.76 209.44C300.9 210.08 301.8 210.96 302.46 212.08C303.12 213.2 303.45 214.45 303.45 215.83C303.45 217.23 303.12 218.5 302.46 219.64C301.8 220.76 300.9 221.65 299.76 222.31C298.64 222.97 297.39 223.3 296.01 223.3ZM296.01 220.69C296.91 220.69 297.71 220.48 298.41 220.06C299.11 219.64 299.66 219.07 300.06 218.35C300.46 217.61 300.66 216.77 300.66 215.83C300.66 214.91 300.45 214.09 300.03 213.37C299.63 212.65 299.08 212.09 298.38 211.69C297.7 211.27 296.91 211.06 296.01 211.06C295.11 211.06 294.31 211.27 293.61 211.69C292.91 212.09 292.36 212.65 291.96 213.37C291.56 214.09 291.36 214.91 291.36 215.83C291.36 216.77 291.56 217.61 291.96 218.35C292.36 219.07 292.91 219.64 293.61 220.06C294.31 220.48 295.11 220.69 296.01 220.69ZM306.492 223V208.75H309.192V223H306.492ZM309.192 214.87L308.172 214.42C308.172 212.6 308.592 211.15 309.432 210.07C310.272 208.99 311.482 208.45 313.062 208.45C313.782 208.45 314.432 208.58 315.012 208.84C315.592 209.08 316.132 209.49 316.632 210.07L314.862 211.9C314.562 211.58 314.232 211.35 313.872 211.21C313.512 211.07 313.092 211 312.612 211C311.612 211 310.792 211.32 310.152 211.96C309.512 212.6 309.192 213.57 309.192 214.87ZM320.664 223V202.78H323.364V223H320.664ZM317.154 211.21V208.75H326.874V211.21H317.154ZM335.14 223.3C333.84 223.3 332.66 222.98 331.6 222.34C330.54 221.68 329.7 220.79 329.08 219.67C328.48 218.55 328.18 217.29 328.18 215.89C328.18 214.49 328.48 213.23 329.08 212.11C329.7 210.99 330.53 210.1 331.57 209.44C332.63 208.78 333.82 208.45 335.14 208.45C336.22 208.45 337.18 208.68 338.02 209.14C338.88 209.58 339.57 210.2 340.09 211C340.61 211.78 340.9 212.69 340.96 213.73V218.02C340.9 219.04 340.61 219.95 340.09 220.75C339.59 221.55 338.91 222.18 338.05 222.64C337.21 223.08 336.24 223.3 335.14 223.3ZM335.59 220.75C336.93 220.75 338.01 220.3 338.83 219.4C339.65 218.48 340.06 217.31 340.06 215.89C340.06 214.91 339.87 214.06 339.49 213.34C339.13 212.6 338.61 212.03 337.93 211.63C337.25 211.21 336.46 211 335.56 211C334.66 211 333.86 211.21 333.16 211.63C332.48 212.05 331.94 212.63 331.54 213.37C331.16 214.09 330.97 214.92 330.97 215.86C330.97 216.82 331.16 217.67 331.54 218.41C331.94 219.13 332.49 219.7 333.19 220.12C333.89 220.54 334.69 220.75 335.59 220.75ZM339.88 223V219.16L340.39 215.68L339.88 212.23V208.75H342.61V223H339.88ZM346.541 223V201.58H349.241V223H346.541ZM359.791 223.3C358.371 223.3 357.091 222.98 355.951 222.34C354.811 221.68 353.911 220.79 353.251 219.67C352.591 218.55 352.261 217.28 352.261 215.86C352.261 214.46 352.581 213.2 353.221 212.08C353.881 210.96 354.761 210.08 355.861 209.44C356.981 208.78 358.231 208.45 359.611 208.45C360.931 208.45 362.091 208.75 363.091 209.35C364.111 209.95 364.901 210.78 365.461 211.84C366.041 212.9 366.331 214.1 366.331 215.44C366.331 215.64 366.321 215.86 366.301 216.1C366.281 216.32 366.241 216.58 366.181 216.88H354.151V214.63H364.741L363.751 215.5C363.751 214.54 363.581 213.73 363.241 213.07C362.901 212.39 362.421 211.87 361.801 211.51C361.181 211.13 360.431 210.94 359.551 210.94C358.631 210.94 357.821 211.14 357.121 211.54C356.421 211.94 355.881 212.5 355.501 213.22C355.121 213.94 354.931 214.79 354.931 215.77C354.931 216.77 355.131 217.65 355.531 218.41C355.931 219.15 356.501 219.73 357.241 220.15C357.981 220.55 358.831 220.75 359.791 220.75C360.591 220.75 361.321 220.61 361.981 220.33C362.661 220.05 363.241 219.63 363.721 219.07L365.461 220.84C364.781 221.64 363.941 222.25 362.941 222.67C361.961 223.09 360.911 223.3 359.791 223.3ZM375.785 223.3C374.385 223.3 373.115 222.97 371.975 222.31C370.855 221.65 369.965 220.76 369.305 219.64C368.665 218.5 368.345 217.24 368.345 215.86C368.345 214.46 368.665 213.2 369.305 212.08C369.965 210.96 370.855 210.08 371.975 209.44C373.115 208.78 374.385 208.45 375.785 208.45C376.885 208.45 377.905 208.66 378.845 209.08C379.785 209.48 380.595 210.07 381.275 210.85L379.475 212.65C379.035 212.13 378.495 211.74 377.855 211.48C377.235 211.2 376.545 211.06 375.785 211.06C374.885 211.06 374.085 211.27 373.385 211.69C372.685 212.09 372.135 212.65 371.735 213.37C371.335 214.09 371.135 214.92 371.135 215.86C371.135 216.8 371.335 217.63 371.735 218.35C372.135 219.07 372.685 219.64 373.385 220.06C374.085 220.48 374.885 220.69 375.785 220.69C376.545 220.69 377.235 220.56 377.855 220.3C378.495 220.02 379.045 219.62 379.505 219.1L381.275 220.9C380.615 221.66 379.805 222.25 378.845 222.67C377.905 223.09 376.885 223.3 375.785 223.3ZM383.983 223V208.75H386.683V223H383.983ZM385.333 205.9C384.833 205.9 384.423 205.74 384.103 205.42C383.783 205.08 383.623 204.66 383.623 204.16C383.623 203.68 383.783 203.28 384.103 202.96C384.423 202.62 384.833 202.45 385.333 202.45C385.833 202.45 386.243 202.62 386.563 202.96C386.883 203.28 387.043 203.68 387.043 204.16C387.043 204.66 386.883 205.08 386.563 205.42C386.243 205.74 385.833 205.9 385.333 205.9ZM390.662 223V208.75H393.362V223H390.662ZM400.292 223V214.39C400.292 213.33 399.962 212.5 399.302 211.9C398.662 211.28 397.852 210.97 396.872 210.97C396.212 210.97 395.622 211.11 395.102 211.39C394.582 211.67 394.162 212.06 393.842 212.56C393.522 213.06 393.362 213.66 393.362 214.36L392.252 213.82C392.252 212.74 392.482 211.8 392.942 211C393.422 210.2 394.072 209.58 394.892 209.14C395.712 208.68 396.632 208.45 397.652 208.45C398.652 208.45 399.552 208.67 400.352 209.11C401.172 209.55 401.812 210.17 402.272 210.97C402.752 211.77 402.992 212.72 402.992 213.82V223H400.292ZM409.922 223V214.39C409.922 213.33 409.592 212.5 408.932 211.9C408.292 211.28 407.492 210.97 406.532 210.97C405.872 210.97 405.272 211.11 404.732 211.39C404.212 211.67 403.792 212.06 403.472 212.56C403.152 213.06 402.992 213.66 402.992 214.36L401.462 213.82C401.522 212.72 401.812 211.78 402.332 211C402.872 210.2 403.562 209.58 404.402 209.14C405.242 208.68 406.162 208.45 407.162 208.45C408.202 208.45 409.132 208.67 409.952 209.11C410.772 209.55 411.422 210.17 411.902 210.97C412.402 211.77 412.652 212.73 412.652 213.85V223H409.922ZM416.356 223V208.75H419.056V223H416.356ZM417.706 205.9C417.206 205.9 416.796 205.74 416.476 205.42C416.156 205.08 415.996 204.66 415.996 204.16C415.996 203.68 416.156 203.28 416.476 202.96C416.796 202.62 417.206 202.45 417.706 202.45C418.206 202.45 418.616 202.62 418.936 202.96C419.256 203.28 419.416 203.68 419.416 204.16C419.416 204.66 419.256 205.08 418.936 205.42C418.616 205.74 418.206 205.9 417.706 205.9ZM429.635 223.3C428.215 223.3 426.935 222.98 425.795 222.34C424.655 221.68 423.755 220.79 423.095 219.67C422.435 218.55 422.105 217.28 422.105 215.86C422.105 214.46 422.425 213.2 423.065 212.08C423.725 210.96 424.605 210.08 425.705 209.44C426.825 208.78 428.075 208.45 429.455 208.45C430.775 208.45 431.935 208.75 432.935 209.35C433.955 209.95 434.745 210.78 435.305 211.84C435.885 212.9 436.175 214.1 436.175 215.44C436.175 215.64 436.165 215.86 436.145 216.1C436.125 216.32 436.085 216.58 436.025 216.88H423.995V214.63H434.585L433.595 215.5C433.595 214.54 433.425 213.73 433.085 213.07C432.745 212.39 432.265 211.87 431.645 211.51C431.025 211.13 430.275 210.94 429.395 210.94C428.475 210.94 427.665 211.14 426.965 211.54C426.265 211.94 425.725 212.5 425.345 213.22C424.965 213.94 424.775 214.79 424.775 215.77C424.775 216.77 424.975 217.65 425.375 218.41C425.775 219.15 426.345 219.73 427.085 220.15C427.825 220.55 428.675 220.75 429.635 220.75C430.435 220.75 431.165 220.61 431.825 220.33C432.505 220.05 433.085 219.63 433.565 219.07L435.305 220.84C434.625 221.64 433.785 222.25 432.785 222.67C431.805 223.09 430.755 223.3 429.635 223.3ZM449.199 223V214.69C449.199 213.61 448.859 212.72 448.179 212.02C447.499 211.32 446.619 210.97 445.539 210.97C444.819 210.97 444.179 211.13 443.619 211.45C443.059 211.77 442.619 212.21 442.299 212.77C441.979 213.33 441.819 213.97 441.819 214.69L440.709 214.06C440.709 212.98 440.949 212.02 441.429 211.18C441.909 210.34 442.579 209.68 443.439 209.2C444.299 208.7 445.269 208.45 446.349 208.45C447.429 208.45 448.379 208.72 449.199 209.26C450.039 209.8 450.699 210.51 451.179 211.39C451.659 212.25 451.899 213.17 451.899 214.15V223H449.199ZM439.119 223V208.75H441.819V223H439.119ZM457.568 223V202.78H460.268V223H457.568ZM454.058 211.21V208.75H463.778V211.21H454.058ZM472.494 223.3C471.094 223.3 469.834 222.97 468.714 222.31C467.594 221.65 466.704 220.76 466.044 219.64C465.384 218.5 465.054 217.23 465.054 215.83C465.054 214.45 465.384 213.21 466.044 212.11C466.704 210.99 467.594 210.1 468.714 209.44C469.834 208.78 471.094 208.45 472.494 208.45C473.874 208.45 475.124 208.78 476.244 209.44C477.384 210.08 478.284 210.96 478.944 212.08C479.604 213.2 479.934 214.45 479.934 215.83C479.934 217.23 479.604 218.5 478.944 219.64C478.284 220.76 477.384 221.65 476.244 222.31C475.124 222.97 473.874 223.3 472.494 223.3ZM472.494 220.69C473.394 220.69 474.194 220.48 474.894 220.06C475.594 219.64 476.144 219.07 476.544 218.35C476.944 217.61 477.144 216.77 477.144 215.83C477.144 214.91 476.934 214.09 476.514 213.37C476.114 212.65 475.564 212.09 474.864 211.69C474.184 211.27 473.394 211.06 472.494 211.06C471.594 211.06 470.794 211.27 470.094 211.69C469.394 212.09 468.844 212.65 468.444 213.37C468.044 214.09 467.844 214.91 467.844 215.83C467.844 216.77 468.044 217.61 468.444 218.35C468.844 219.07 469.394 219.64 470.094 220.06C470.794 220.48 471.594 220.69 472.494 220.69ZM495.816 223.3C494.396 223.3 493.116 222.98 491.976 222.34C490.836 221.68 489.936 220.79 489.276 219.67C488.616 218.55 488.286 217.28 488.286 215.86C488.286 214.46 488.606 213.2 489.246 212.08C489.906 210.96 490.786 210.08 491.886 209.44C493.006 208.78 494.256 208.45 495.636 208.45C496.956 208.45 498.116 208.75 499.116 209.35C500.136 209.95 500.926 210.78 501.486 211.84C502.066 212.9 502.356 214.1 502.356 215.44C502.356 215.64 502.346 215.86 502.326 216.1C502.306 216.32 502.266 216.58 502.206 216.88H490.176V214.63H500.766L499.776 215.5C499.776 214.54 499.606 213.73 499.266 213.07C498.926 212.39 498.446 211.87 497.826 211.51C497.206 211.13 496.456 210.94 495.576 210.94C494.656 210.94 493.846 211.14 493.146 211.54C492.446 211.94 491.906 212.5 491.526 213.22C491.146 213.94 490.956 214.79 490.956 215.77C490.956 216.77 491.156 217.65 491.556 218.41C491.956 219.15 492.526 219.73 493.266 220.15C494.006 220.55 494.856 220.75 495.816 220.75C496.616 220.75 497.346 220.61 498.006 220.33C498.686 220.05 499.266 219.63 499.746 219.07L501.486 220.84C500.806 221.64 499.966 222.25 498.966 222.67C497.986 223.09 496.936 223.3 495.816 223.3ZM512.021 223V202.18H514.841V223H512.021ZM519.275 223V208.75H521.975V223H519.275ZM528.905 223V214.39C528.905 213.33 528.575 212.5 527.915 211.9C527.275 211.28 526.465 210.97 525.485 210.97C524.825 210.97 524.235 211.11 523.715 211.39C523.195 211.67 522.775 212.06 522.455 212.56C522.135 213.06 521.975 213.66 521.975 214.36L520.865 213.82C520.865 212.74 521.095 211.8 521.555 211C522.035 210.2 522.685 209.58 523.505 209.14C524.325 208.68 525.245 208.45 526.265 208.45C527.265 208.45 528.165 208.67 528.965 209.11C529.785 209.55 530.425 210.17 530.885 210.97C531.365 211.77 531.605 212.72 531.605 213.82V223H528.905ZM538.535 223V214.39C538.535 213.33 538.205 212.5 537.545 211.9C536.905 211.28 536.105 210.97 535.145 210.97C534.485 210.97 533.885 211.11 533.345 211.39C532.825 211.67 532.405 212.06 532.085 212.56C531.765 213.06 531.605 213.66 531.605 214.36L530.075 213.82C530.135 212.72 530.425 211.78 530.945 211C531.485 210.2 532.175 209.58 533.015 209.14C533.855 208.68 534.775 208.45 535.775 208.45C536.815 208.45 537.745 208.67 538.565 209.11C539.385 209.55 540.035 210.17 540.515 210.97C541.015 211.77 541.265 212.73 541.265 213.85V223H538.535ZM552.439 223.3C551.359 223.3 550.379 223.08 549.499 222.64C548.639 222.18 547.949 221.55 547.429 220.75C546.909 219.95 546.619 219.04 546.559 218.02V213.73C546.619 212.69 546.909 211.78 547.429 211C547.969 210.2 548.669 209.58 549.529 209.14C550.409 208.68 551.379 208.45 552.439 208.45C553.739 208.45 554.909 208.78 555.949 209.44C557.009 210.1 557.839 210.99 558.439 212.11C559.039 213.23 559.339 214.49 559.339 215.89C559.339 217.29 559.039 218.55 558.439 219.67C557.839 220.79 557.009 221.68 555.949 222.34C554.909 222.98 553.739 223.3 552.439 223.3ZM551.989 220.75C552.889 220.75 553.679 220.54 554.359 220.12C555.039 219.7 555.579 219.13 555.979 218.41C556.379 217.67 556.579 216.82 556.579 215.86C556.579 214.92 556.379 214.08 555.979 213.34C555.579 212.6 555.039 212.03 554.359 211.63C553.679 211.21 552.899 211 552.019 211C551.119 211 550.329 211.21 549.649 211.63C548.969 212.03 548.439 212.6 548.059 213.34C547.679 214.08 547.489 214.93 547.489 215.89C547.489 216.83 547.669 217.67 548.029 218.41C548.409 219.13 548.939 219.7 549.619 220.12C550.319 220.54 551.109 220.75 551.989 220.75ZM544.939 228.97V208.75H547.639V212.5L547.129 215.95L547.639 219.43V228.97H544.939ZM568.13 223.3C566.97 223.3 565.92 223.04 564.98 222.52C564.06 221.98 563.34 221.24 562.82 220.3C562.3 219.36 562.04 218.27 562.04 217.03V208.75H564.74V216.91C564.74 217.69 564.87 218.37 565.13 218.95C565.41 219.51 565.81 219.94 566.33 220.24C566.85 220.54 567.46 220.69 568.16 220.69C569.22 220.69 570.05 220.36 570.65 219.7C571.25 219.02 571.55 218.09 571.55 216.91V208.75H574.25V217.03C574.25 218.27 573.99 219.36 573.47 220.3C572.95 221.24 572.23 221.98 571.31 222.52C570.41 223.04 569.35 223.3 568.13 223.3ZM577.869 223V201.58H580.569V223H577.869ZM589.049 223.3C588.249 223.3 587.489 223.2 586.769 223C586.069 222.78 585.419 222.48 584.819 222.1C584.219 221.7 583.699 221.23 583.259 220.69L584.999 218.95C585.519 219.59 586.119 220.07 586.799 220.39C587.479 220.69 588.239 220.84 589.079 220.84C589.919 220.84 590.569 220.7 591.029 220.42C591.489 220.12 591.719 219.71 591.719 219.19C591.719 218.67 591.529 218.27 591.149 217.99C590.789 217.69 590.319 217.45 589.739 217.27C589.159 217.07 588.539 216.88 587.879 216.7C587.239 216.5 586.629 216.25 586.049 215.95C585.469 215.65 584.989 215.24 584.609 214.72C584.249 214.2 584.069 213.51 584.069 212.65C584.069 211.79 584.279 211.05 584.699 210.43C585.119 209.79 585.699 209.3 586.439 208.96C587.199 208.62 588.109 208.45 589.169 208.45C590.289 208.45 591.279 208.65 592.139 209.05C593.019 209.43 593.739 210.01 594.299 210.79L592.559 212.53C592.159 212.01 591.659 211.61 591.059 211.33C590.479 211.05 589.819 210.91 589.079 210.91C588.299 210.91 587.699 211.05 587.279 211.33C586.879 211.59 586.679 211.96 586.679 212.44C586.679 212.92 586.859 213.29 587.219 213.55C587.579 213.81 588.049 214.03 588.629 214.21C589.229 214.39 589.849 214.58 590.489 214.78C591.129 214.96 591.739 215.21 592.319 215.53C592.899 215.85 593.369 216.28 593.729 216.82C594.109 217.36 594.299 218.07 594.299 218.95C594.299 220.29 593.819 221.35 592.859 222.13C591.919 222.91 590.649 223.3 589.049 223.3ZM603.832 223.3C602.432 223.3 601.172 222.97 600.052 222.31C598.932 221.65 598.042 220.76 597.382 219.64C596.722 218.5 596.392 217.23 596.392 215.83C596.392 214.45 596.722 213.21 597.382 212.11C598.042 210.99 598.932 210.1 600.052 209.44C601.172 208.78 602.432 208.45 603.832 208.45C605.212 208.45 606.462 208.78 607.582 209.44C608.722 210.08 609.622 210.96 610.282 212.08C610.942 213.2 611.272 214.45 611.272 215.83C611.272 217.23 610.942 218.5 610.282 219.64C609.622 220.76 608.722 221.65 607.582 222.31C606.462 222.97 605.212 223.3 603.832 223.3ZM603.832 220.69C604.732 220.69 605.532 220.48 606.232 220.06C606.932 219.64 607.482 219.07 607.882 218.35C608.282 217.61 608.482 216.77 608.482 215.83C608.482 214.91 608.272 214.09 607.852 213.37C607.452 212.65 606.902 212.09 606.202 211.69C605.522 211.27 604.732 211.06 603.832 211.06C602.932 211.06 602.132 211.27 601.432 211.69C600.732 212.09 600.182 212.65 599.782 213.37C599.382 214.09 599.182 214.91 599.182 215.83C599.182 216.77 599.382 217.61 599.782 218.35C600.182 219.07 600.732 219.64 601.432 220.06C602.132 220.48 602.932 220.69 603.832 220.69ZM8.01 256.3C6.69 256.3 5.51 255.98 4.47 255.34C3.43 254.68 2.6 253.79 1.98 252.67C1.38 251.55 1.08 250.29 1.08 248.89C1.08 247.49 1.38 246.23 1.98 245.11C2.6 243.99 3.43 243.1 4.47 242.44C5.51 241.78 6.69 241.45 8.01 241.45C9.07 241.45 10.03 241.68 10.89 242.14C11.75 242.58 12.44 243.2 12.96 244C13.5 244.78 13.8 245.69 13.86 246.73V251.02C13.8 252.04 13.51 252.95 12.99 253.75C12.47 254.55 11.78 255.18 10.92 255.64C10.06 256.08 9.09 256.3 8.01 256.3ZM8.46 253.75C9.36 253.75 10.14 253.54 10.8 253.12C11.48 252.7 12.01 252.13 12.39 251.41C12.77 250.67 12.96 249.83 12.96 248.89C12.96 247.91 12.76 247.06 12.36 246.34C11.98 245.62 11.45 245.05 10.77 244.63C10.11 244.21 9.33 244 8.43 244C7.53 244 6.74 244.21 6.06 244.63C5.38 245.05 4.84 245.63 4.44 246.37C4.06 247.09 3.87 247.92 3.87 248.86C3.87 249.82 4.06 250.67 4.44 251.41C4.84 252.13 5.38 252.7 6.06 253.12C6.76 253.54 7.56 253.75 8.46 253.75ZM15.51 256H12.78V252.16L13.29 248.68L12.78 245.23V234.58H15.51V256ZM26.0409 256.3C24.6209 256.3 23.3409 255.98 22.2009 255.34C21.0609 254.68 20.1609 253.79 19.5009 252.67C18.8409 251.55 18.5109 250.28 18.5109 248.86C18.5109 247.46 18.8309 246.2 19.4709 245.08C20.1309 243.96 21.0109 243.08 22.1109 242.44C23.2309 241.78 24.4809 241.45 25.8609 241.45C27.1809 241.45 28.3409 241.75 29.3409 242.35C30.3609 242.95 31.1509 243.78 31.7109 244.84C32.2909 245.9 32.5809 247.1 32.5809 248.44C32.5809 248.64 32.5709 248.86 32.5509 249.1C32.5309 249.32 32.4909 249.58 32.4309 249.88H20.4009V247.63H30.9909L30.0009 248.5C30.0009 247.54 29.8309 246.73 29.4909 246.07C29.1509 245.39 28.6709 244.87 28.0509 244.51C27.4309 244.13 26.6809 243.94 25.8009 243.94C24.8809 243.94 24.0709 244.14 23.3709 244.54C22.6709 244.94 22.1309 245.5 21.7509 246.22C21.3709 246.94 21.1809 247.79 21.1809 248.77C21.1809 249.77 21.3809 250.65 21.7809 251.41C22.1809 252.15 22.7509 252.73 23.4909 253.15C24.2309 253.55 25.0809 253.75 26.0409 253.75C26.8409 253.75 27.5709 253.61 28.2309 253.33C28.9109 253.05 29.4909 252.63 29.9709 252.07L31.7109 253.84C31.0309 254.64 30.1909 255.25 29.1909 255.67C28.2109 256.09 27.1609 256.3 26.0409 256.3ZM41.7652 256V234.58H44.4652V256H41.7652ZM54.4755 256.3C53.1755 256.3 51.9955 255.98 50.9355 255.34C49.8755 254.68 49.0355 253.79 48.4155 252.67C47.8155 251.55 47.5155 250.29 47.5155 248.89C47.5155 247.49 47.8155 246.23 48.4155 245.11C49.0355 243.99 49.8655 243.1 50.9055 242.44C51.9655 241.78 53.1555 241.45 54.4755 241.45C55.5555 241.45 56.5155 241.68 57.3555 242.14C58.2155 242.58 58.9055 243.2 59.4255 244C59.9455 244.78 60.2355 245.69 60.2955 246.73V251.02C60.2355 252.04 59.9455 252.95 59.4255 253.75C58.9255 254.55 58.2455 255.18 57.3855 255.64C56.5455 256.08 55.5755 256.3 54.4755 256.3ZM54.9255 253.75C56.2655 253.75 57.3455 253.3 58.1655 252.4C58.9855 251.48 59.3955 250.31 59.3955 248.89C59.3955 247.91 59.2055 247.06 58.8255 246.34C58.4655 245.6 57.9455 245.03 57.2655 244.63C56.5855 244.21 55.7955 244 54.8955 244C53.9955 244 53.1955 244.21 52.4955 244.63C51.8155 245.05 51.2755 245.63 50.8755 246.37C50.4955 247.09 50.3055 247.92 50.3055 248.86C50.3055 249.82 50.4955 250.67 50.8755 251.41C51.2755 252.13 51.8255 252.7 52.5255 253.12C53.2255 253.54 54.0255 253.75 54.9255 253.75ZM59.2155 256V252.16L59.7255 248.68L59.2155 245.23V241.75H61.9455V256H59.2155ZM82.0767 256.3C80.5967 256.3 79.2167 256.03 77.9367 255.49C76.6567 254.93 75.5367 254.16 74.5767 253.18C73.6167 252.18 72.8667 251.03 72.3267 249.73C71.8067 248.43 71.5467 247.04 71.5467 245.56C71.5467 244.06 71.8067 242.67 72.3267 241.39C72.8667 240.09 73.6067 238.95 74.5467 237.97C75.5067 236.99 76.6167 236.23 77.8767 235.69C79.1567 235.15 80.5367 234.88 82.0167 234.88C83.4967 234.88 84.8667 235.15 86.1267 235.69C87.4067 236.23 88.5267 236.99 89.4867 237.97C90.4467 238.95 91.1967 240.09 91.7367 241.39C92.2767 242.69 92.5467 244.09 92.5467 245.59C92.5467 247.07 92.2767 248.46 91.7367 249.76C91.1967 251.06 90.4467 252.2 89.4867 253.18C88.5467 254.16 87.4367 254.93 86.1567 255.49C84.8967 256.03 83.5367 256.3 82.0767 256.3ZM82.0167 253.6C83.5167 253.6 84.8267 253.26 85.9467 252.58C87.0867 251.88 87.9867 250.93 88.6467 249.73C89.3067 248.51 89.6367 247.12 89.6367 245.56C89.6367 244.4 89.4467 243.34 89.0667 242.38C88.6867 241.4 88.1567 240.55 87.4767 239.83C86.7967 239.11 85.9967 238.56 85.0767 238.18C84.1567 237.78 83.1367 237.58 82.0167 237.58C80.5367 237.58 79.2267 237.92 78.0867 238.6C76.9667 239.28 76.0767 240.22 75.4167 241.42C74.7767 242.62 74.4567 244 74.4567 245.56C74.4567 246.72 74.6367 247.8 74.9967 248.8C75.3767 249.78 75.8967 250.63 76.5567 251.35C77.2367 252.05 78.0367 252.6 78.9567 253C79.8967 253.4 80.9167 253.6 82.0167 253.6ZM97.9751 256V239.62C97.9751 238.56 98.2051 237.64 98.6651 236.86C99.1251 236.06 99.7551 235.43 100.555 234.97C101.375 234.51 102.325 234.28 103.405 234.28C104.225 234.28 104.935 234.42 105.535 234.7C106.135 234.98 106.685 235.39 107.185 235.93L105.415 237.67C105.155 237.39 104.865 237.18 104.545 237.04C104.225 236.88 103.835 236.8 103.375 236.8C102.515 236.8 101.845 237.05 101.365 237.55C100.905 238.05 100.675 238.74 100.675 239.62V256H97.9751ZM94.4651 244.21V241.75H105.205V244.21H94.4651ZM113.697 256.3C112.277 256.3 110.997 255.98 109.857 255.34C108.717 254.68 107.817 253.79 107.157 252.67C106.497 251.55 106.167 250.28 106.167 248.86C106.167 247.46 106.487 246.2 107.127 245.08C107.787 243.96 108.667 243.08 109.767 242.44C110.887 241.78 112.137 241.45 113.517 241.45C114.837 241.45 115.997 241.75 116.997 242.35C118.017 242.95 118.807 243.78 119.367 244.84C119.947 245.9 120.237 247.1 120.237 248.44C120.237 248.64 120.227 248.86 120.207 249.1C120.187 249.32 120.147 249.58 120.087 249.88H108.057V247.63H118.647L117.657 248.5C117.657 247.54 117.487 246.73 117.147 246.07C116.807 245.39 116.327 244.87 115.707 244.51C115.087 244.13 114.337 243.94 113.457 243.94C112.537 243.94 111.727 244.14 111.027 244.54C110.327 244.94 109.787 245.5 109.407 246.22C109.027 246.94 108.837 247.79 108.837 248.77C108.837 249.77 109.037 250.65 109.437 251.41C109.837 252.15 110.407 252.73 111.147 253.15C111.887 253.55 112.737 253.75 113.697 253.75C114.497 253.75 115.227 253.61 115.887 253.33C116.567 253.05 117.147 252.63 117.627 252.07L119.367 253.84C118.687 254.64 117.847 255.25 116.847 255.67C115.867 256.09 114.817 256.3 113.697 256.3ZM123.181 256V241.75H125.881V256H123.181ZM125.881 247.87L124.861 247.42C124.861 245.6 125.281 244.15 126.121 243.07C126.961 241.99 128.171 241.45 129.751 241.45C130.471 241.45 131.121 241.58 131.701 241.84C132.281 242.08 132.821 242.49 133.321 243.07L131.551 244.9C131.251 244.58 130.921 244.35 130.561 244.21C130.201 244.07 129.781 244 129.301 244C128.301 244 127.481 244.32 126.841 244.96C126.201 245.6 125.881 246.57 125.881 247.87ZM137.354 256V235.78H140.054V256H137.354ZM133.844 244.21V241.75H143.564V244.21H133.844ZM151.829 256.3C150.529 256.3 149.349 255.98 148.289 255.34C147.229 254.68 146.389 253.79 145.769 252.67C145.169 251.55 144.869 250.29 144.869 248.89C144.869 247.49 145.169 246.23 145.769 245.11C146.389 243.99 147.219 243.1 148.259 242.44C149.319 241.78 150.509 241.45 151.829 241.45C152.909 241.45 153.869 241.68 154.709 242.14C155.569 242.58 156.259 243.2 156.779 244C157.299 244.78 157.589 245.69 157.649 246.73V251.02C157.589 252.04 157.299 252.95 156.779 253.75C156.279 254.55 155.599 255.18 154.739 255.64C153.899 256.08 152.929 256.3 151.829 256.3ZM152.279 253.75C153.619 253.75 154.699 253.3 155.519 252.4C156.339 251.48 156.749 250.31 156.749 248.89C156.749 247.91 156.559 247.06 156.179 246.34C155.819 245.6 155.299 245.03 154.619 244.63C153.939 244.21 153.149 244 152.249 244C151.349 244 150.549 244.21 149.849 244.63C149.169 245.05 148.629 245.63 148.229 246.37C147.849 247.09 147.659 247.92 147.659 248.86C147.659 249.82 147.849 250.67 148.229 251.41C148.629 252.13 149.179 252.7 149.879 253.12C150.579 253.54 151.379 253.75 152.279 253.75ZM156.569 256V252.16L157.079 248.68L156.569 245.23V241.75H159.299V256H156.569ZM175.001 256V235.78H177.821V256H175.001ZM167.921 237.76V235.18H184.871V237.76H167.921ZM190.552 256.3C189.392 256.3 188.342 256.04 187.402 255.52C186.482 254.98 185.762 254.24 185.242 253.3C184.722 252.36 184.462 251.27 184.462 250.03V241.75H187.162V249.91C187.162 250.69 187.292 251.37 187.552 251.95C187.832 252.51 188.232 252.94 188.752 253.24C189.272 253.54 189.882 253.69 190.582 253.69C191.642 253.69 192.472 253.36 193.072 252.7C193.672 252.02 193.972 251.09 193.972 249.91V241.75H196.672V250.03C196.672 251.27 196.412 252.36 195.892 253.3C195.372 254.24 194.652 254.98 193.732 255.52C192.832 256.04 191.772 256.3 190.552 256.3ZM200.291 256V241.75H202.991V256H200.291ZM202.991 247.87L201.971 247.42C201.971 245.6 202.391 244.15 203.231 243.07C204.071 241.99 205.281 241.45 206.861 241.45C207.581 241.45 208.231 241.58 208.811 241.84C209.391 242.08 209.931 242.49 210.431 243.07L208.661 244.9C208.361 244.58 208.031 244.35 207.671 244.21C207.311 244.07 206.891 244 206.411 244C205.411 244 204.591 244.32 203.951 244.96C203.311 245.6 202.991 246.57 202.991 247.87ZM212.859 256V241.75H215.559V256H212.859ZM212.409 239.62L211.179 238.39L215.079 233.56L217.209 235.69L212.409 239.62ZM224.039 256.3C223.239 256.3 222.479 256.2 221.759 256C221.059 255.78 220.409 255.48 219.809 255.1C219.209 254.7 218.689 254.23 218.249 253.69L219.989 251.95C220.509 252.59 221.109 253.07 221.789 253.39C222.469 253.69 223.229 253.84 224.069 253.84C224.909 253.84 225.559 253.7 226.019 253.42C226.479 253.12 226.709 252.71 226.709 252.19C226.709 251.67 226.519 251.27 226.139 250.99C225.779 250.69 225.309 250.45 224.729 250.27C224.149 250.07 223.529 249.88 222.869 249.7C222.229 249.5 221.619 249.25 221.039 248.95C220.459 248.65 219.979 248.24 219.599 247.72C219.239 247.2 219.059 246.51 219.059 245.65C219.059 244.79 219.269 244.05 219.689 243.43C220.109 242.79 220.689 242.3 221.429 241.96C222.189 241.62 223.099 241.45 224.159 241.45C225.279 241.45 226.269 241.65 227.129 242.05C228.009 242.43 228.729 243.01 229.289 243.79L227.549 245.53C227.149 245.01 226.649 244.61 226.049 244.33C225.469 244.05 224.809 243.91 224.069 243.91C223.289 243.91 222.689 244.05 222.269 244.33C221.869 244.59 221.669 244.96 221.669 245.44C221.669 245.92 221.849 246.29 222.209 246.55C222.569 246.81 223.039 247.03 223.619 247.21C224.219 247.39 224.839 247.58 225.479 247.78C226.119 247.96 226.729 248.21 227.309 248.53C227.889 248.85 228.359 249.28 228.719 249.82C229.099 250.36 229.289 251.07 229.289 251.95C229.289 253.29 228.809 254.35 227.849 255.13C226.909 255.91 225.639 256.3 224.039 256.3ZM234.502 256V235.78H237.202V256H234.502ZM230.992 244.21V241.75H240.712V244.21H230.992ZM243.387 256V241.75H246.087V256H243.387ZM244.737 238.9C244.237 238.9 243.827 238.74 243.507 238.42C243.187 238.08 243.027 237.66 243.027 237.16C243.027 236.68 243.187 236.28 243.507 235.96C243.827 235.62 244.237 235.45 244.737 235.45C245.237 235.45 245.647 235.62 245.967 235.96C246.287 236.28 246.447 236.68 246.447 237.16C246.447 237.66 246.287 238.08 245.967 238.42C245.647 238.74 245.237 238.9 244.737 238.9ZM256.576 256.3C255.176 256.3 253.906 255.97 252.766 255.31C251.646 254.65 250.756 253.76 250.096 252.64C249.456 251.5 249.136 250.24 249.136 248.86C249.136 247.46 249.456 246.2 250.096 245.08C250.756 243.96 251.646 243.08 252.766 242.44C253.906 241.78 255.176 241.45 256.576 241.45C257.676 241.45 258.696 241.66 259.636 242.08C260.576 242.48 261.386 243.07 262.066 243.85L260.266 245.65C259.826 245.13 259.286 244.74 258.646 244.48C258.026 244.2 257.336 244.06 256.576 244.06C255.676 244.06 254.876 244.27 254.176 244.69C253.476 245.09 252.926 245.65 252.526 246.37C252.126 247.09 251.926 247.92 251.926 248.86C251.926 249.8 252.126 250.63 252.526 251.35C252.926 252.07 253.476 252.64 254.176 253.06C254.876 253.48 255.676 253.69 256.576 253.69C257.336 253.69 258.026 253.56 258.646 253.3C259.286 253.02 259.836 252.62 260.296 252.1L262.066 253.9C261.406 254.66 260.596 255.25 259.636 255.67C258.696 256.09 257.676 256.3 256.576 256.3ZM270.511 256.3C269.211 256.3 268.031 255.98 266.971 255.34C265.911 254.68 265.071 253.79 264.451 252.67C263.851 251.55 263.551 250.29 263.551 248.89C263.551 247.49 263.851 246.23 264.451 245.11C265.071 243.99 265.901 243.1 266.941 242.44C268.001 241.78 269.191 241.45 270.511 241.45C271.591 241.45 272.551 241.68 273.391 242.14C274.251 242.58 274.941 243.2 275.461 244C275.981 244.78 276.271 245.69 276.331 246.73V251.02C276.271 252.04 275.981 252.95 275.461 253.75C274.961 254.55 274.281 255.18 273.421 255.64C272.581 256.08 271.611 256.3 270.511 256.3ZM270.961 253.75C272.301 253.75 273.381 253.3 274.201 252.4C275.021 251.48 275.431 250.31 275.431 248.89C275.431 247.91 275.241 247.06 274.861 246.34C274.501 245.6 273.981 245.03 273.301 244.63C272.621 244.21 271.831 244 270.931 244C270.031 244 269.231 244.21 268.531 244.63C267.851 245.05 267.311 245.63 266.911 246.37C266.531 247.09 266.341 247.92 266.341 248.86C266.341 249.82 266.531 250.67 266.911 251.41C267.311 252.13 267.861 252.7 268.561 253.12C269.261 253.54 270.061 253.75 270.961 253.75ZM275.251 256V252.16L275.761 248.68L275.251 245.23V241.75H277.981V256H275.251ZM294.182 256.3C292.862 256.3 291.682 255.98 290.642 255.34C289.602 254.68 288.772 253.79 288.152 252.67C287.552 251.55 287.252 250.29 287.252 248.89C287.252 247.49 287.552 246.23 288.152 245.11C288.772 243.99 289.602 243.1 290.642 242.44C291.682 241.78 292.862 241.45 294.182 241.45C295.242 241.45 296.202 241.68 297.062 242.14C297.922 242.58 298.612 243.2 299.132 244C299.672 244.78 299.972 245.69 300.032 246.73V251.02C299.972 252.04 299.682 252.95 299.162 253.75C298.642 254.55 297.952 255.18 297.092 255.64C296.232 256.08 295.262 256.3 294.182 256.3ZM294.632 253.75C295.532 253.75 296.312 253.54 296.972 253.12C297.652 252.7 298.182 252.13 298.562 251.41C298.942 250.67 299.132 249.83 299.132 248.89C299.132 247.91 298.932 247.06 298.532 246.34C298.152 245.62 297.622 245.05 296.942 244.63C296.282 244.21 295.502 244 294.602 244C293.702 244 292.912 244.21 292.232 244.63C291.552 245.05 291.012 245.63 290.612 246.37C290.232 247.09 290.042 247.92 290.042 248.86C290.042 249.82 290.232 250.67 290.612 251.41C291.012 252.13 291.552 252.7 292.232 253.12C292.932 253.54 293.732 253.75 294.632 253.75ZM301.682 256H298.952V252.16L299.462 248.68L298.952 245.23V234.58H301.682V256ZM312.213 256.3C310.793 256.3 309.513 255.98 308.373 255.34C307.233 254.68 306.333 253.79 305.673 252.67C305.013 251.55 304.683 250.28 304.683 248.86C304.683 247.46 305.003 246.2 305.643 245.08C306.303 243.96 307.183 243.08 308.283 242.44C309.403 241.78 310.653 241.45 312.033 241.45C313.353 241.45 314.513 241.75 315.513 242.35C316.533 242.95 317.323 243.78 317.883 244.84C318.463 245.9 318.753 247.1 318.753 248.44C318.753 248.64 318.743 248.86 318.723 249.1C318.703 249.32 318.663 249.58 318.603 249.88H306.573V247.63H317.163L316.173 248.5C316.173 247.54 316.003 246.73 315.663 246.07C315.323 245.39 314.843 244.87 314.223 244.51C313.603 244.13 312.853 243.94 311.973 243.94C311.053 243.94 310.243 244.14 309.543 244.54C308.843 244.94 308.303 245.5 307.923 246.22C307.543 246.94 307.353 247.79 307.353 248.77C307.353 249.77 307.553 250.65 307.953 251.41C308.353 252.15 308.923 252.73 309.663 253.15C310.403 253.55 311.253 253.75 312.213 253.75C313.013 253.75 313.743 253.61 314.403 253.33C315.083 253.05 315.663 252.63 316.143 252.07L317.883 253.84C317.203 254.64 316.363 255.25 315.363 255.67C314.383 256.09 313.333 256.3 312.213 256.3ZM321.697 256V234.58H324.397V256H321.697ZM335.067 256V235.18H337.047L345.867 249.67H344.517L353.337 235.18H355.317V256H352.497V240.13L353.157 240.31L346.197 251.74H344.217L337.257 240.31L337.887 240.13V256H335.067ZM365.813 256.3C364.513 256.3 363.333 255.98 362.273 255.34C361.213 254.68 360.373 253.79 359.753 252.67C359.153 251.55 358.853 250.29 358.853 248.89C358.853 247.49 359.153 246.23 359.753 245.11C360.373 243.99 361.203 243.1 362.243 242.44C363.303 241.78 364.493 241.45 365.813 241.45C366.893 241.45 367.853 241.68 368.693 242.14C369.553 242.58 370.243 243.2 370.763 244C371.283 244.78 371.573 245.69 371.633 246.73V251.02C371.573 252.04 371.283 252.95 370.763 253.75C370.263 254.55 369.583 255.18 368.723 255.64C367.883 256.08 366.913 256.3 365.813 256.3ZM366.263 253.75C367.603 253.75 368.683 253.3 369.503 252.4C370.323 251.48 370.733 250.31 370.733 248.89C370.733 247.91 370.543 247.06 370.163 246.34C369.803 245.6 369.283 245.03 368.603 244.63C367.923 244.21 367.133 244 366.233 244C365.333 244 364.533 244.21 363.833 244.63C363.153 245.05 362.613 245.63 362.213 246.37C361.833 247.09 361.643 247.92 361.643 248.86C361.643 249.82 361.833 250.67 362.213 251.41C362.613 252.13 363.163 252.7 363.863 253.12C364.563 253.54 365.363 253.75 366.263 253.75ZM370.553 256V252.16L371.063 248.68L370.553 245.23V241.75H373.283V256H370.553ZM383.124 262.27C381.664 262.27 380.364 262 379.224 261.46C378.104 260.92 377.204 260.16 376.524 259.18L378.264 257.41C378.844 258.15 379.534 258.71 380.334 259.09C381.134 259.49 382.084 259.69 383.184 259.69C384.644 259.69 385.794 259.3 386.634 258.52C387.494 257.76 387.924 256.73 387.924 255.43V251.89L388.404 248.68L387.924 245.5V241.75H390.624V255.43C390.624 256.79 390.304 257.98 389.664 259C389.044 260.02 388.164 260.82 387.024 261.4C385.904 261.98 384.604 262.27 383.124 262.27ZM383.124 255.76C381.824 255.76 380.654 255.45 379.614 254.83C378.594 254.21 377.784 253.36 377.184 252.28C376.584 251.18 376.284 249.95 376.284 248.59C376.284 247.23 376.584 246.02 377.184 244.96C377.784 243.88 378.594 243.03 379.614 242.41C380.654 241.77 381.824 241.45 383.124 241.45C384.244 241.45 385.234 241.67 386.094 242.11C386.954 242.55 387.634 243.17 388.134 243.97C388.654 244.75 388.934 245.67 388.974 246.73V250.51C388.914 251.55 388.624 252.47 388.104 253.27C387.604 254.05 386.924 254.66 386.064 255.1C385.204 255.54 384.224 255.76 383.124 255.76ZM383.664 253.21C384.544 253.21 385.314 253.02 385.974 252.64C386.654 252.26 387.174 251.73 387.534 251.05C387.894 250.35 388.074 249.54 388.074 248.62C388.074 247.7 387.884 246.9 387.504 246.22C387.144 245.52 386.634 244.98 385.974 244.6C385.314 244.2 384.534 244 383.634 244C382.734 244 381.944 244.2 381.264 244.6C380.584 244.98 380.044 245.52 379.644 246.22C379.264 246.9 379.074 247.69 379.074 248.59C379.074 249.49 379.264 250.29 379.644 250.99C380.044 251.69 380.584 252.24 381.264 252.64C381.964 253.02 382.764 253.21 383.664 253.21ZM400.617 256.3C399.297 256.3 398.117 255.98 397.077 255.34C396.037 254.68 395.207 253.79 394.587 252.67C393.987 251.55 393.687 250.29 393.687 248.89C393.687 247.49 393.987 246.23 394.587 245.11C395.207 243.99 396.037 243.1 397.077 242.44C398.117 241.78 399.297 241.45 400.617 241.45C401.677 241.45 402.637 241.68 403.497 242.14C404.357 242.58 405.047 243.2 405.567 244C406.107 244.78 406.407 245.69 406.467 246.73V251.02C406.407 252.04 406.117 252.95 405.597 253.75C405.077 254.55 404.387 255.18 403.527 255.64C402.667 256.08 401.697 256.3 400.617 256.3ZM401.067 253.75C401.967 253.75 402.747 253.54 403.407 253.12C404.087 252.7 404.617 252.13 404.997 251.41C405.377 250.67 405.567 249.83 405.567 248.89C405.567 247.91 405.367 247.06 404.967 246.34C404.587 245.62 404.057 245.05 403.377 244.63C402.717 244.21 401.937 244 401.037 244C400.137 244 399.347 244.21 398.667 244.63C397.987 245.05 397.447 245.63 397.047 246.37C396.667 247.09 396.477 247.92 396.477 248.86C396.477 249.82 396.667 250.67 397.047 251.41C397.447 252.13 397.987 252.7 398.667 253.12C399.367 253.54 400.167 253.75 401.067 253.75ZM408.117 256H405.387V252.16L405.897 248.68L405.387 245.23V234.58H408.117V256ZM418.108 256.3C416.808 256.3 415.628 255.98 414.568 255.34C413.508 254.68 412.668 253.79 412.048 252.67C411.448 251.55 411.148 250.29 411.148 248.89C411.148 247.49 411.448 246.23 412.048 245.11C412.668 243.99 413.498 243.1 414.538 242.44C415.598 241.78 416.788 241.45 418.108 241.45C419.188 241.45 420.148 241.68 420.988 242.14C421.848 242.58 422.538 243.2 423.058 244C423.578 244.78 423.868 245.69 423.928 246.73V251.02C423.868 252.04 423.578 252.95 423.058 253.75C422.558 254.55 421.878 255.18 421.018 255.64C420.178 256.08 419.208 256.3 418.108 256.3ZM418.558 253.75C419.898 253.75 420.978 253.3 421.798 252.4C422.618 251.48 423.028 250.31 423.028 248.89C423.028 247.91 422.838 247.06 422.458 246.34C422.098 245.6 421.578 245.03 420.898 244.63C420.218 244.21 419.428 244 418.528 244C417.628 244 416.828 244.21 416.128 244.63C415.448 245.05 414.908 245.63 414.508 246.37C414.128 247.09 413.938 247.92 413.938 248.86C413.938 249.82 414.128 250.67 414.508 251.41C414.908 252.13 415.458 252.7 416.158 253.12C416.858 253.54 417.658 253.75 418.558 253.75ZM422.848 256V252.16L423.358 248.68L422.848 245.23V241.75H425.578V256H422.848ZM429.509 256V234.58H432.209V256H429.509ZM442.76 256.3C441.34 256.3 440.06 255.98 438.92 255.34C437.78 254.68 436.88 253.79 436.22 252.67C435.56 251.55 435.23 250.28 435.23 248.86C435.23 247.46 435.55 246.2 436.19 245.08C436.85 243.96 437.73 243.08 438.83 242.44C439.95 241.78 441.2 241.45 442.58 241.45C443.9 241.45 445.06 241.75 446.06 242.35C447.08 242.95 447.87 243.78 448.43 244.84C449.01 245.9 449.3 247.1 449.3 248.44C449.3 248.64 449.29 248.86 449.27 249.1C449.25 249.32 449.21 249.58 449.15 249.88H437.12V247.63H447.71L446.72 248.5C446.72 247.54 446.55 246.73 446.21 246.07C445.87 245.39 445.39 244.87 444.77 244.51C444.15 244.13 443.4 243.94 442.52 243.94C441.6 243.94 440.79 244.14 440.09 244.54C439.39 244.94 438.85 245.5 438.47 246.22C438.09 246.94 437.9 247.79 437.9 248.77C437.9 249.77 438.1 250.65 438.5 251.41C438.9 252.15 439.47 252.73 440.21 253.15C440.95 253.55 441.8 253.75 442.76 253.75C443.56 253.75 444.29 253.61 444.95 253.33C445.63 253.05 446.21 252.63 446.69 252.07L448.43 253.84C447.75 254.64 446.91 255.25 445.91 255.67C444.93 256.09 443.88 256.3 442.76 256.3ZM462.324 256V247.69C462.324 246.61 461.984 245.72 461.304 245.02C460.624 244.32 459.744 243.97 458.664 243.97C457.944 243.97 457.304 244.13 456.744 244.45C456.184 244.77 455.744 245.21 455.424 245.77C455.104 246.33 454.944 246.97 454.944 247.69L453.834 247.06C453.834 245.98 454.074 245.02 454.554 244.18C455.034 243.34 455.704 242.68 456.564 242.2C457.424 241.7 458.394 241.45 459.474 241.45C460.554 241.45 461.504 241.72 462.324 242.26C463.164 242.8 463.824 243.51 464.304 244.39C464.784 245.25 465.024 246.17 465.024 247.15V256H462.324ZM452.244 256V241.75H454.944V256H452.244ZM474.739 256.3C473.439 256.3 472.259 255.98 471.199 255.34C470.139 254.68 469.299 253.79 468.679 252.67C468.079 251.55 467.779 250.29 467.779 248.89C467.779 247.49 468.079 246.23 468.679 245.11C469.299 243.99 470.129 243.1 471.169 242.44C472.229 241.78 473.419 241.45 474.739 241.45C475.819 241.45 476.779 241.68 477.619 242.14C478.479 242.58 479.169 243.2 479.689 244C480.209 244.78 480.499 245.69 480.559 246.73V251.02C480.499 252.04 480.209 252.95 479.689 253.75C479.189 254.55 478.509 255.18 477.649 255.64C476.809 256.08 475.839 256.3 474.739 256.3ZM475.189 253.75C476.529 253.75 477.609 253.3 478.429 252.4C479.249 251.48 479.659 250.31 479.659 248.89C479.659 247.91 479.469 247.06 479.089 246.34C478.729 245.6 478.209 245.03 477.529 244.63C476.849 244.21 476.059 244 475.159 244C474.259 244 473.459 244.21 472.759 244.63C472.079 245.05 471.539 245.63 471.139 246.37C470.759 247.09 470.569 247.92 470.569 248.86C470.569 249.82 470.759 250.67 471.139 251.41C471.539 252.13 472.089 252.7 472.789 253.12C473.489 253.54 474.289 253.75 475.189 253.75ZM479.479 256V252.16L479.989 248.68L479.479 245.23V241.75H482.209V256H479.479ZM488.51 256.3C487.95 256.3 487.48 256.11 487.1 255.73C486.74 255.33 486.56 254.86 486.56 254.32C486.56 253.76 486.74 253.3 487.1 252.94C487.48 252.56 487.95 252.37 488.51 252.37C489.07 252.37 489.53 252.56 489.89 252.94C490.27 253.3 490.46 253.76 490.46 254.32C490.46 254.86 490.27 255.33 489.89 255.73C489.53 256.11 489.07 256.3 488.51 256.3Z" fill="white"/>
<defs>
<clipPath id="clip0_123_371">
<rect width="606" height="97" fill="white"/>
</clipPath>
<clipPath id="clip1_123_371">
<rect width="441" height="80" fill="white" transform="translate(0 106)"/>
</clipPath>
</defs>
</svg>
