<svg width="217" height="52" viewBox="0 0 217 52" fill="none" xmlns="http://www.w3.org/2000/svg">
<g clip-path="url(#clip0_501_191)">
<path d="M63.0431 31.3619C62.4947 31.2876 61.9764 31.2728 61.428 31.2579C60.9247 31.2431 60.3913 31.154 60.0307 30.8124C59.565 30.3742 59.5199 29.6761 59.4973 29.0374C59.3847 25.0346 59.317 21.0243 59.6326 17.0289C59.6851 16.405 59.7903 15.6995 60.3162 15.3653C60.7444 15.0906 61.3454 15.1723 61.7585 15.4842C62.1717 15.7961 62.3971 16.2862 62.4947 16.7838C62.5924 17.2814 62.5699 17.7938 62.5473 18.2988C62.4271 21.2397 62.4497 24.1805 62.6225 27.114C62.645 27.4407 62.6826 27.8046 62.953 27.9903C63.1183 28.1091 63.3436 28.124 63.5465 28.1388C64.9888 28.2205 66.4387 28.3022 67.8811 28.3913C68.3468 28.421 68.8201 28.4433 69.2558 28.5993C69.6915 28.7552 70.1047 29.0449 70.285 29.4682C70.9386 31.0129 68.6548 31.3322 67.6707 31.3545C66.1683 31.3842 64.5306 31.5624 63.0356 31.3545" fill="white"/>
<path d="M82.1093 31.2951C81.3882 30.2108 81.5309 28.9186 81.5985 27.6784C81.6886 26.1337 81.6285 24.5816 81.7412 23.0369C81.8539 21.4922 82.1469 19.9326 82.8981 18.5736C83.6494 17.2145 84.9039 16.0708 86.4289 15.7292C87.0073 15.5956 87.6008 15.5807 88.1868 15.5733C88.8629 15.5733 89.5465 15.5733 90.2151 15.7144C91.5373 15.9892 92.7242 16.7764 93.5355 17.8383C94.3469 18.9003 94.8051 20.2148 94.8877 21.5441C95.0455 24.1285 94.8727 26.7649 94.8652 29.3568C94.8652 30.196 94.8276 31.2579 93.836 31.5253C93.4228 31.6367 92.9496 31.5253 92.6416 31.2134C92.0706 30.6415 92.3185 29.691 92.3561 28.9854C92.4012 28.124 92.6265 26.557 92.1007 25.8069C91.8678 25.4727 91.4396 25.443 91.064 25.443C89.3437 25.443 87.5633 25.3168 85.8429 25.4876C85.4448 25.5247 85.0166 25.6287 84.7537 25.9332C84.4607 26.2674 84.4532 26.7575 84.4682 27.2031C84.4907 28.2057 84.7161 29.4459 84.4457 30.4187C84.3029 30.9386 83.9724 31.154 83.5216 31.3842C83.3489 31.4882 83.1611 31.5327 82.9732 31.5327C82.8831 31.5327 82.7704 31.5179 82.6352 31.4807C82.2896 31.3545 82.1168 31.2951 82.1168 31.2951M85.3396 22.7844C86.2261 22.7844 87.1125 22.7844 88.0065 22.7621C89.1108 22.7324 91.9429 23.5196 92.0105 21.7001C92.0256 21.3362 91.8978 20.9797 91.7476 20.653C91.4246 19.9772 91.1091 19.3236 90.4329 18.9375C89.3812 18.3359 87.4806 18.3136 86.3989 18.8409C85.4748 19.2939 84.5734 20.5267 84.5433 21.5664C84.5283 21.9155 84.8363 22.8735 85.3471 22.7918" fill="white"/>
<path d="M109.709 31.5476C108.958 31.1317 109.086 30.2851 109.086 29.535C109.086 28.7552 109.139 27.9829 109.131 27.2031C109.109 25.5916 108.988 23.98 108.988 22.3759C108.988 20.7718 109.086 19.1009 109.086 17.467C109.086 16.5239 109.845 16.004 110.716 15.952C112.542 15.8332 114.367 15.9966 116.193 16.0486C117.763 16.0931 119.137 16.3234 120.354 17.3631C121.339 18.2023 121.804 19.695 121.879 20.9426C121.962 22.3611 121.489 23.8092 120.58 24.9083C120.294 25.25 119.926 25.495 119.551 25.7327C119.01 26.0743 118.551 26.3862 117.913 26.5125C117.252 26.6387 116.576 26.6387 115.907 26.6016C115.148 26.557 114.397 26.4011 113.631 26.4233C113.045 26.4382 112.316 26.661 111.926 27.114C111.482 27.6338 111.655 28.4285 111.723 29.0374C111.843 30.1217 111.558 32.3868 109.837 31.607C109.8 31.5921 109.762 31.5699 109.725 31.555L109.709 31.5476ZM112.842 24.0989C113.969 24.2622 115.118 24.3217 116.253 24.2028C116.914 24.136 117.74 24.0914 118.274 23.6458C118.92 23.1037 119.002 21.6407 118.89 20.8758C118.506 18.3508 115.577 18.9003 113.706 18.9152C113.067 18.9152 112.482 18.9746 112.136 19.5687C111.843 20.0737 111.813 20.7198 111.79 21.2842C111.753 22.064 111.723 22.8438 111.76 23.6161C111.76 23.683 111.768 23.7498 111.813 23.8018C111.941 23.9429 112.414 24.0023 112.609 24.0543C112.692 24.0766 112.767 24.0914 112.85 24.0989H112.842Z" fill="white"/>
<path d="M137.099 31.8595C135.785 31.6738 133.771 32.1788 132.99 30.7901C132.667 30.2182 132.614 29.5424 132.569 28.8889C132.314 25.1386 132.261 21.3733 132.397 17.623C132.412 17.222 132.434 16.8061 132.645 16.4645C133.028 15.8555 133.846 15.7292 134.568 15.6773C136.979 15.499 139.398 15.5362 141.802 15.7812C142.38 15.8406 142.974 15.9149 143.47 16.212C143.966 16.509 144.341 17.0734 144.228 17.6378C144.033 18.6181 142.711 18.8038 141.704 18.7667C140.562 18.7221 139.428 18.685 138.286 18.6404C137.452 18.6107 136.558 18.5959 135.867 19.0637C135.289 19.4573 134.966 20.1777 135.048 20.8683C135.131 21.559 135.627 22.1828 136.28 22.4279C136.911 22.6656 137.61 22.569 138.271 22.6656C138.94 22.7621 139.669 23.1928 139.676 23.8538C139.691 24.6558 138.699 25.0717 137.896 25.0866C137.084 25.1014 136.19 24.9455 135.544 25.4282C134.808 25.9777 134.801 27.062 135.018 27.9458C135.086 28.2205 135.176 28.4953 135.379 28.6958C135.687 29.0003 136.175 29.0152 136.603 29.0226C138.196 29.0226 139.789 29.0374 141.381 29.0449C142.087 29.0449 142.846 29.0671 143.41 29.4905C144.304 30.1663 143.823 31.3174 142.891 31.6887C142.403 31.8818 141.862 31.8966 141.329 31.9041C140.037 31.9189 138.744 31.9486 137.452 31.9263C137.347 31.9115 137.227 31.8892 137.099 31.8743" fill="white"/>
<path d="M166.555 31.9412C165.871 31.5995 165.368 30.5673 165.03 29.9212C164.895 29.6538 164.76 29.3716 164.549 29.1562C164.444 29.0448 164.354 28.9706 164.241 28.8666C163.242 27.9829 162.536 26.4827 160.973 26.6015C160.109 26.6684 159.313 27.2699 159.02 28.0794C158.742 28.8443 158.915 29.6984 158.795 30.5004C158.675 31.3025 158.029 32.1788 157.225 32.0303C156.346 31.8669 156.128 30.7306 156.113 29.8469C156.045 25.8366 156.023 21.8263 156.045 17.8161C156.045 17.467 156.053 17.0957 156.241 16.8061C156.534 16.3382 157.157 16.2268 157.713 16.1674C159.298 16.0114 160.898 16.0114 162.483 16.1674C164.887 16.405 167.569 17.2442 168.568 19.4202C169.357 21.1208 168.831 23.2002 167.682 24.6781C167.088 25.4504 166.285 26.2376 166.382 27.2031C166.45 27.8492 166.923 28.3765 167.381 28.8443C167.84 29.3122 168.335 29.7949 168.478 30.4336C168.734 31.5698 167.539 32.2011 166.555 31.9263M160.801 24.2622C161.747 24.1657 162.694 24.1582 163.633 24.0765C164.339 24.0171 165.083 23.8092 165.556 23.2819C166.157 22.6135 166.164 21.6184 166.029 20.7346C165.931 20.1331 165.744 19.487 165.225 19.1528C164.827 18.8929 164.324 18.878 163.843 18.878C162.566 18.8632 161.289 18.8483 160.012 18.8409C159.854 18.8409 159.689 18.8409 159.554 18.93C159.433 19.0117 159.373 19.1454 159.313 19.2791C158.87 20.3856 158.772 21.6258 159.035 22.7843C159.11 23.126 159.231 23.475 159.478 23.7201C159.816 24.0617 160.327 24.1508 160.801 24.2325" fill="white"/>
<path d="M184.472 32.2308C183.848 32.1417 183.225 32.2011 182.601 32.1417C182.053 32.0897 181.474 31.8595 181.226 31.3768C181.091 31.1169 181.069 30.8124 181.046 30.5227C180.776 26.3639 180.791 22.1903 181.024 18.024C181.046 17.6304 181.076 17.2294 181.257 16.8803C181.459 16.5016 181.85 16.2268 182.278 16.1674C183.781 15.9446 184.021 17.6156 183.983 18.7073C183.878 21.8041 183.901 24.9009 184.051 27.9903C184.066 28.2502 184.089 28.525 184.261 28.7181C184.464 28.9409 184.802 28.978 185.103 29.0003C186.801 29.1117 188.521 29.1637 190.211 29.3791C190.647 29.4311 191.113 29.5127 191.428 29.8172C191.766 30.1291 191.864 30.649 191.721 31.0871C191.24 32.5576 189.257 32.216 188.063 32.2902C186.868 32.3571 185.659 32.3942 184.472 32.2308" fill="white"/>
<path d="M204.229 32.164C204.229 32.164 204.146 32.0154 203.974 31.7258C203.538 30.9757 203.621 29.9583 203.666 29.1265C203.718 28.1314 203.869 27.1362 203.884 26.1411C203.906 24.9232 203.726 23.6978 203.914 22.4947C204.131 21.0985 204.883 19.5984 205.732 18.4696C206.881 16.9472 208.346 16.5164 210.201 16.4719C210.908 16.457 211.621 16.4496 212.312 16.5907C213.642 16.858 214.844 17.6452 215.67 18.7147C216.722 20.0811 217.015 21.8115 217.008 23.4973C217 25.948 217.008 28.3987 216.947 30.842C216.947 31.0945 216.932 31.347 216.857 31.5847C216.692 32.0748 216.211 32.4387 215.693 32.4462C215.175 32.4536 214.664 32.0971 214.528 31.5995C214.461 31.3693 214.468 31.1317 214.483 30.894C214.506 30.2182 214.536 29.5424 214.559 28.874C214.559 28.7107 214.574 28.5398 214.559 28.3765C214.543 28.2354 214.506 28.0943 214.476 27.9457C214.318 27.0323 214.235 26.2971 213.131 26.3119C211.591 26.3268 209.991 26.4753 208.459 26.3565C208.038 26.3193 207.67 26.2599 207.279 26.505C206.926 26.7278 206.723 27.1362 206.648 27.5447C206.573 27.9532 206.603 28.369 206.626 28.7849C206.678 29.7652 207.009 31.5698 205.919 32.1268L205.656 32.2531C205.484 32.357 205.296 32.4016 205.108 32.4016C205.018 32.4016 204.905 32.3868 204.77 32.3496C204.424 32.2234 204.244 32.164 204.244 32.164M207.467 23.6532C208.316 23.9503 209.24 23.7275 210.111 23.7052C210.84 23.6904 211.569 23.6755 212.297 23.6532C212.868 23.6384 213.552 23.7424 213.95 23.2448C214.363 22.7249 214.018 21.7372 213.762 21.2099C213.101 19.8583 211.989 19.4424 210.554 19.3905C209.743 19.3608 208.924 19.3608 208.241 19.8658C207.888 20.1257 207.602 20.4673 207.347 20.8238C206.806 21.5813 206.167 23.2151 207.474 23.6458" fill="white"/>
<path d="M118.138 45.5836C118.138 45.5836 118.086 45.4944 117.981 45.3088C117.875 45.1008 117.823 44.8409 117.823 44.5216C117.83 43.2442 117.89 41.9669 117.92 40.6895C117.928 40.3553 117.935 40.0286 117.981 39.7018C118.108 38.677 118.536 37.6892 119.205 36.8946C119.453 36.5976 119.738 36.3302 120.076 36.152C120.587 35.8846 121.181 35.8401 121.752 35.8178C122.323 35.8029 122.901 35.8104 123.449 35.9589C124.313 36.204 125.057 36.8204 125.515 37.5927C125.816 38.0977 126.004 38.6621 126.064 39.2488C126.094 39.5236 126.086 39.7984 126.086 40.0731C126.086 40.7415 126.079 41.4099 126.071 42.0783C126.071 42.16 126.071 42.2491 126.079 42.3308C126.086 42.4199 126.109 42.5016 126.124 42.5833C126.154 42.7912 126.124 43.0066 126.101 43.2145C126.064 43.5858 126.056 43.9572 126.071 44.3285C126.086 44.7295 126.116 45.1825 125.853 45.487C125.696 45.6727 125.433 45.7692 125.192 45.7395C124.952 45.7098 124.719 45.5464 124.614 45.3311C124.494 45.086 124.516 44.7964 124.539 44.5216C124.576 43.8681 124.554 43.2145 124.464 42.5684C124.441 42.405 124.411 42.2342 124.298 42.108C124.111 41.9 123.788 41.9075 123.51 41.9297C122.841 41.9743 122.172 41.9817 121.511 41.9446C121.151 41.9223 120.798 41.8926 120.437 41.9297C120.302 41.9446 120.174 41.9669 120.054 42.0337C119.926 42.108 119.836 42.2268 119.776 42.3531C119.558 42.7689 119.596 43.2665 119.641 43.727C119.686 44.1874 119.738 44.685 119.543 45.1083C119.423 45.3756 119.182 45.5984 118.897 45.6801C118.634 45.7618 118.394 45.6578 118.146 45.5687M120.152 40.2737C120.249 40.3256 120.407 40.2959 120.512 40.2885H120.948C121.241 40.2737 121.526 40.2737 121.819 40.2662C122.33 40.2588 122.841 40.2514 123.352 40.2365C123.72 40.2365 124.163 40.2365 124.291 39.8132C124.343 39.6498 124.313 39.4716 124.268 39.3008C124.141 38.7884 123.855 38.2165 123.404 37.9195C122.999 37.6521 122.48 37.6298 121.992 37.615C121.692 37.615 121.391 37.6001 121.106 37.6892C120.52 37.8675 119.994 38.4542 119.791 39.0186C119.708 39.2488 119.686 39.5087 119.738 39.7464C119.768 39.88 119.941 40.3776 120.152 40.2662" fill="white"/>
<path d="M134.447 45.7247C134.297 45.6281 134.177 45.6355 134.094 45.4722C133.959 45.2197 134.034 44.9894 134.079 44.7295C134.132 44.4102 134.094 44.0463 134.094 43.7195C134.094 43.0066 134.094 42.2936 134.094 41.5881C134.087 40.1622 134.057 38.7438 134.012 37.3179C134.004 36.9912 134.004 36.6347 134.215 36.3896C134.41 36.1668 134.733 36.1 135.026 36.0628C135.92 35.9515 136.821 35.996 137.723 36.0257C138.782 36.0628 139.924 36.0926 140.78 36.7238C141.441 37.2065 141.832 37.9937 141.945 38.7958C142.057 39.5607 141.945 40.3553 141.569 41.0386C141.201 41.7144 140.577 42.2639 139.834 42.5016C138.857 42.8135 137.798 42.5758 136.769 42.6204C136.476 42.6353 136.16 42.6724 135.942 42.8655C135.627 43.1403 135.612 43.6155 135.657 44.024C135.71 44.4547 135.822 44.9672 135.552 45.3533C135.304 45.7098 134.846 45.7618 134.44 45.7172M136.378 41.1277C136.904 41.2242 137.52 41.202 138.023 41.202C138.594 41.202 139.458 41.202 139.841 40.7118C139.969 40.541 140.037 40.3331 140.082 40.1251C140.277 39.2339 140.172 38.2314 139.165 37.9343C138.444 37.7189 137.685 37.9046 136.949 37.8898C135.679 37.8675 135.649 39.5533 135.657 40.4445C135.657 40.5559 135.657 40.6672 135.71 40.7638C135.777 40.9123 135.92 41.0089 136.078 41.0609C136.175 41.0906 136.28 41.1203 136.393 41.1351L136.378 41.1277Z" fill="white"/>
<path d="M149.833 45.8212C149.833 45.8212 149.818 45.8064 149.78 45.7915C149.742 45.7692 149.705 45.7544 149.675 45.7395C149.224 45.5984 149.442 44.5142 149.442 44.1651C149.442 43.4373 149.442 42.7021 149.434 41.9743C149.434 40.5113 149.419 39.0557 149.412 37.5927C149.412 37.162 149.427 36.6718 149.75 36.3748C150.058 36.0926 150.524 36.0851 150.944 36.0926C151.876 36.1148 152.815 36.1445 153.747 36.1668C154.4 36.1817 155.069 36.204 155.662 36.4713C158.134 37.5704 157.796 41.3431 155.504 42.4125C155.106 42.5981 154.671 42.7021 154.227 42.717C153.424 42.7467 152.605 42.7318 151.808 42.7244C151.418 42.7244 151.14 43.1254 151.095 43.5116C151.012 44.1503 151.26 44.8409 150.982 45.4573C150.772 45.9103 150.358 45.9994 149.93 45.8286C149.878 45.8138 149.848 45.8138 149.848 45.8138M151.801 41.1945C151.801 41.1945 151.846 41.1945 151.868 41.1945C152.635 41.2688 153.408 41.2539 154.167 41.1425C154.738 41.0609 155.279 40.8529 155.467 40.2588C155.565 39.9617 155.595 39.6498 155.572 39.3379C155.542 39.026 155.452 38.7067 155.264 38.4542C154.746 37.7561 153.949 37.9566 153.206 37.9492L152.635 37.9269C152.312 37.9269 152.071 37.9269 151.921 37.9566C151.485 38.016 151.283 38.3873 151.207 38.7809C151.132 39.1968 151.125 39.6127 151.095 40.036C151.072 40.3553 150.99 40.7267 151.245 40.9792C151.388 41.1203 151.598 41.1574 151.801 41.1871V41.1945Z" fill="white"/>
<path d="M169.875 41.2985C169.875 41.2614 169.875 41.2242 169.875 41.1871C169.815 39.6944 168.591 38.4319 167.081 38.4022C166.127 38.3799 165.361 38.729 164.76 39.4048C164.76 39.4048 164.752 39.4196 164.745 39.427L164.692 39.4864L163.603 40.7638L163.144 41.2985L163.603 41.8332L164.692 43.1106L164.745 43.17C164.745 43.17 164.752 43.1848 164.76 43.1922C165.361 43.8755 166.134 44.2171 167.081 44.1948C168.591 44.1651 169.815 42.91 169.875 41.4099C169.875 41.3728 169.875 41.3356 169.875 41.2985Z" fill="white"/>
<path d="M180.295 41.2985C180.295 41.2985 180.295 41.2391 180.295 41.2094C180.25 40.0583 179.303 39.0854 178.139 39.0631C177.41 39.0483 176.809 39.3156 176.351 39.8355C176.351 39.8355 176.344 39.8429 176.336 39.8504L176.298 39.8949L175.457 40.8752L175.104 41.2911L175.457 41.707L176.298 42.6873L176.336 42.7318C176.336 42.7318 176.344 42.7392 176.351 42.7467C176.817 43.2739 177.41 43.5339 178.139 43.519C179.303 43.4967 180.25 42.5239 180.295 41.3728C180.295 41.3431 180.295 41.3134 180.295 41.2837V41.2985Z" fill="white"/>
<path d="M188.371 41.2985C188.371 41.2985 188.371 41.2614 188.371 41.2465C188.341 40.5559 187.777 39.9692 187.079 39.9543C186.635 39.9469 186.282 40.1028 186.004 40.4222C186.004 40.4222 186.004 40.4222 186.004 40.4296L185.982 40.4593L185.478 41.0534L185.268 41.2985L185.478 41.5436L185.982 42.1377L186.004 42.1674C186.004 42.1674 186.004 42.1674 186.004 42.1748C186.282 42.4867 186.643 42.6501 187.079 42.6427C187.777 42.6278 188.348 42.0486 188.371 41.3505C188.371 41.3356 188.371 41.3134 188.371 41.2985V41.2985Z" fill="white"/>
<path d="M104.977 41.2985C104.977 41.3356 104.977 41.3728 104.977 41.4099C105.037 42.9026 106.261 44.1651 107.771 44.1948C108.725 44.2171 109.492 43.8681 110.093 43.1923C110.093 43.1923 110.1 43.1774 110.108 43.17L110.16 43.1106L111.25 41.8332L111.708 41.2985L111.25 40.7638L110.16 39.4865L110.108 39.427C110.108 39.427 110.1 39.4122 110.093 39.4048C109.492 38.7215 108.718 38.3799 107.771 38.4022C106.261 38.4319 105.037 39.687 104.977 41.1871C104.977 41.2242 104.977 41.2614 104.977 41.2985Z" fill="white"/>
<path d="M94.5647 41.2985C94.5647 41.2985 94.5647 41.3579 94.5647 41.3876C94.6098 42.5387 95.5563 43.5116 96.7207 43.5339C97.4494 43.5487 98.0504 43.2814 98.5087 42.7615C98.5087 42.7615 98.5162 42.7541 98.5237 42.7467L98.5613 42.7021L99.4026 41.7218L99.7557 41.3059L99.4026 40.8901L98.5613 39.9098L98.5237 39.8652C98.5237 39.8652 98.5162 39.8578 98.5087 39.8503C98.0429 39.3231 97.4494 39.0631 96.7207 39.078C95.5563 39.1003 94.6098 40.0731 94.5647 41.2242C94.5647 41.2539 94.5647 41.2837 94.5647 41.3134V41.2985Z" fill="white"/>
<path d="M86.489 41.2985C86.489 41.2985 86.489 41.3356 86.489 41.3505C86.519 42.0411 87.0825 42.6278 87.7811 42.6427C88.2243 42.6501 88.5774 42.4942 88.8554 42.1748C88.8554 42.1748 88.8554 42.1748 88.8554 42.1674L88.8779 42.1377L89.3812 41.5436L89.5916 41.2985L89.3812 41.0534L88.8779 40.4593L88.8554 40.4296C88.8554 40.4296 88.8554 40.4296 88.8554 40.4222C88.5774 40.1103 88.2168 39.9469 87.7811 39.9543C87.0825 39.9692 86.5115 40.5484 86.489 41.2465C86.489 41.2614 86.489 41.2836 86.489 41.2985V41.2985Z" fill="white"/>
<path d="M23.7764 0.0148529C23.4759 0 23.1829 0 22.8824 0C22.5819 0 22.289 0 21.9885 0.0148529C10.1792 0.46044 0.240392 9.91431 -1.68416e-06 21.5887C-0.150247 28.926 2.56169 34.882 7.94049 39.5236C7.98556 39.5681 8.03815 39.6053 8.09074 39.6498L8.5565 40.036L18.6305 48.4502L22.8674 51.9926L27.1043 48.4502L37.1783 40.036L37.6441 39.6498C37.6967 39.6053 37.7417 39.5681 37.7943 39.5236C43.1731 34.882 45.8851 28.926 45.7348 21.5887C45.517 9.91431 35.5857 0.46044 23.7764 0.0148529ZM22.8749 40.7044C12.7108 40.7044 4.46981 32.5576 4.46981 22.5096C4.46981 12.4616 12.7108 4.30734 22.8824 4.30734C33.0541 4.30734 41.2875 12.4542 41.2875 22.5021C41.2875 32.5501 33.0466 40.6969 22.8824 40.6969L22.8749 40.7044Z" fill="white"/>
<path d="M32.9639 33.7161C32.6184 33.523 32.2803 33.3299 31.9423 33.1517C31.499 32.9214 31.0859 32.7432 30.6952 32.6244C30.0266 32.4165 29.4332 32.3719 28.9148 32.4907C28.7646 32.5204 28.6068 32.565 28.4566 32.6318H28.449C27.9833 32.8175 27.5401 33.1145 27.0593 33.419C26.7813 33.5973 26.4958 33.7755 26.1954 33.9463C25.1587 34.5256 23.9867 34.8746 22.8975 34.9117H22.8599C21.7631 34.8746 20.5912 34.5256 19.562 33.9463C19.2615 33.7755 18.976 33.5973 18.6981 33.419C18.1572 33.0626 17.6389 32.7284 17.1055 32.5576H17.0905C17.0153 32.5278 16.9327 32.4981 16.8501 32.4907C16.3242 32.3719 15.7307 32.4165 15.0546 32.6244C14.6715 32.7432 14.2583 32.914 13.8151 33.1442C13.477 33.3225 13.139 33.5156 12.7934 33.7087C12.5756 33.8349 12.3502 33.9612 12.1173 34.0874C12.8009 34.7112 13.5447 35.2756 14.3335 35.7732C14.4536 35.8475 14.5814 35.9217 14.7016 35.9886C14.8368 36.0703 14.9645 36.152 15.1072 36.2262C16.8876 37.2139 18.8784 37.8823 20.9893 38.1348C21.6053 38.2091 22.2289 38.2462 22.8674 38.2462C23.506 38.2462 24.137 38.2091 24.7605 38.1348C24.768 38.1348 24.7755 38.1274 24.783 38.1274C26.8865 37.8823 28.8622 37.2214 30.6351 36.2411C30.6351 36.2411 30.6351 36.2411 30.6426 36.2411C30.7703 36.1668 30.8905 36.0925 31.0182 36.0183C31.1309 35.9514 31.2511 35.8846 31.3638 35.8178C31.3863 35.8029 31.4089 35.7881 31.4314 35.7732C31.6868 35.6098 31.9423 35.439 32.1902 35.2682C32.6935 34.9117 33.1743 34.5181 33.6325 34.1023C33.4072 33.976 33.1818 33.8498 32.9639 33.7235V33.7161Z" fill="white"/>
<path d="M32.9639 33.7161C32.6184 33.523 32.2803 33.3299 31.9423 33.1517C31.499 32.9214 31.0859 32.7432 30.6952 32.6244C30.0266 32.4165 29.4332 32.3719 28.9148 32.4907C28.7646 32.5204 28.6068 32.565 28.4566 32.6318H28.449C27.9833 32.8175 27.5401 33.1145 27.0593 33.419C26.7813 33.5973 26.4958 33.7755 26.1954 33.9463C25.1587 34.5256 23.9867 34.8746 22.8975 34.9117H22.8599C21.7631 34.8746 20.5912 34.5256 19.562 33.9463C19.2615 33.7755 18.976 33.5973 18.6981 33.419C18.1572 33.0626 17.6389 32.7284 17.1055 32.5576H17.0905C17.0153 32.5278 16.9327 32.4981 16.8501 32.4907C16.3242 32.3719 15.7307 32.4165 15.0546 32.6244C14.6715 32.7432 14.2583 32.914 13.8151 33.1442C13.477 33.3225 13.139 33.5156 12.7934 33.7087C12.5756 33.8349 12.3502 33.9612 12.1173 34.0874C12.8009 34.7112 13.5447 35.2756 14.3335 35.7732C14.4536 35.8475 14.5814 35.9217 14.7016 35.9886C14.8368 36.0703 14.9645 36.152 15.1072 36.2262C16.8876 37.2139 18.8784 37.8823 20.9893 38.1348C21.6053 38.2091 22.2289 38.2462 22.8674 38.2462C23.506 38.2462 24.137 38.2091 24.7605 38.1348C24.768 38.1348 24.7755 38.1274 24.783 38.1274C26.8865 37.8823 28.8622 37.2214 30.6351 36.2411C30.6351 36.2411 30.6351 36.2411 30.6426 36.2411C30.7703 36.1668 30.8905 36.0925 31.0182 36.0183C31.1309 35.9514 31.2511 35.8846 31.3638 35.8178C31.3863 35.8029 31.4089 35.7881 31.4314 35.7732C31.6868 35.6098 31.9423 35.439 32.1902 35.2682C32.6935 34.9117 33.1743 34.5181 33.6325 34.1023C33.4072 33.976 33.1818 33.8498 32.9639 33.7235V33.7161Z" fill="white"/>
<path d="M34.4589 28.0051C33.9405 27.7601 33.4447 27.4779 32.9714 27.1957C32.6259 27.0026 32.2878 26.8095 31.9498 26.6313C30.7403 26 29.7487 25.7846 28.9223 25.9703C28.7721 26 28.6143 26.0446 28.4641 26.1114H28.4566C27.9908 26.2971 27.5476 26.5941 27.0668 26.8986C26.7888 27.0768 26.5034 27.2551 26.2029 27.4259C25.1662 28.0051 23.9942 28.3542 22.905 28.3839H22.8674C21.7706 28.3468 20.5987 27.9977 19.5695 27.4185C19.269 27.2476 18.9836 27.0694 18.7056 26.8912C18.1647 26.5347 17.6464 26.2005 17.113 26.0297H17.098C17.0228 26 16.9402 25.9703 16.8576 25.9629C16.0312 25.7772 15.0396 25.9926 13.8226 26.6238C13.4846 26.8021 13.1465 26.9952 12.8009 27.1882C12.3202 27.463 11.8319 27.7452 11.306 27.9903C10.9905 28.1388 10.6599 28.2725 10.3219 28.3913C9.70587 28.5918 9.08235 28.6958 8.48888 28.6958H8.48137C8.40625 28.6958 8.33864 28.6958 8.27103 28.6958C8.3161 28.7924 8.35366 28.8963 8.39874 28.9854C8.47386 29.1637 8.55649 29.3345 8.64664 29.5053C8.66167 29.5424 8.67669 29.5796 8.69923 29.6167C8.72176 29.6612 8.7443 29.691 8.75933 29.7207C8.78937 29.7949 8.82694 29.8618 8.8645 29.9286C8.89455 29.9954 8.93962 30.0623 8.97718 30.1291C9.30772 30.7232 9.67582 31.2951 10.089 31.8298C10.0965 31.8595 10.1115 31.8818 10.1341 31.8966C10.1566 31.9337 10.1867 31.9634 10.2092 31.9932C10.7801 31.7555 11.336 31.451 11.9145 31.1094C12.2375 30.9163 12.5831 30.7307 12.9286 30.5524C12.9512 30.5376 12.9812 30.5227 13.0038 30.5079C14.6039 29.6835 15.9861 29.4162 17.2407 29.6984C18.1872 29.9063 18.946 30.3965 19.6897 30.8718C19.9526 31.05 20.2005 31.2134 20.4635 31.3545C21.2372 31.8001 22.0936 32.0526 22.8975 32.0823C23.6938 32.0526 24.5577 31.8075 25.3239 31.3619C25.5869 31.2282 25.8423 31.0574 26.1052 30.8792C26.8489 30.4039 27.6077 29.9137 28.5542 29.7132C29.8088 29.4385 31.191 29.7132 32.7911 30.5376C32.8137 30.5524 32.8437 30.5673 32.8663 30.5747C33.2193 30.7604 33.5574 30.946 33.8804 31.1391C34.4589 31.4807 35.0148 31.7926 35.5782 32.0229C36.1266 31.3173 36.6074 30.5598 37.0281 29.7726V29.7578C37.0281 29.7578 37.0431 29.7429 37.0431 29.7355C37.2159 29.4087 37.3736 29.0746 37.5239 28.7329C36.8703 28.7626 36.1642 28.6661 35.4655 28.4359C35.1199 28.3171 34.7969 28.1834 34.4814 28.0349L34.4589 28.0051Z" fill="white"/>
<path d="M34.4589 28.0051C33.9405 27.7601 33.4447 27.4779 32.9714 27.1957C32.6259 27.0026 32.2878 26.8095 31.9498 26.6313C30.7403 26 29.7487 25.7846 28.9223 25.9703C28.7721 26 28.6143 26.0446 28.4641 26.1114H28.4566C27.9908 26.2971 27.5476 26.5941 27.0668 26.8986C26.7888 27.0768 26.5034 27.2551 26.2029 27.4259C25.1662 28.0051 23.9942 28.3542 22.905 28.3839H22.8674C21.7706 28.3468 20.5987 27.9977 19.5695 27.4185C19.269 27.2476 18.9836 27.0694 18.7056 26.8912C18.1647 26.5347 17.6464 26.2005 17.113 26.0297H17.098C17.0228 26 16.9402 25.9703 16.8576 25.9629C16.0312 25.7772 15.0396 25.9926 13.8226 26.6238C13.4846 26.8021 13.1465 26.9952 12.8009 27.1882C12.3202 27.463 11.8319 27.7452 11.306 27.9903C10.9905 28.1388 10.6599 28.2725 10.3219 28.3913C9.70587 28.5918 9.08235 28.6958 8.48888 28.6958H8.48137C8.40625 28.6958 8.33864 28.6958 8.27103 28.6958C8.3161 28.7924 8.35366 28.8963 8.39874 28.9854C8.47386 29.1637 8.55649 29.3345 8.64664 29.5053C8.66167 29.5424 8.67669 29.5796 8.69923 29.6167C8.72176 29.6612 8.7443 29.691 8.75933 29.7207C8.78937 29.7949 8.82694 29.8618 8.8645 29.9286C8.89455 29.9954 8.93962 30.0623 8.97718 30.1291C9.30772 30.7232 9.67582 31.2951 10.089 31.8298C10.0965 31.8595 10.1115 31.8818 10.1341 31.8966C10.1566 31.9337 10.1867 31.9634 10.2092 31.9932C10.7801 31.7555 11.336 31.451 11.9145 31.1094C12.2375 30.9163 12.5831 30.7307 12.9286 30.5524C12.9512 30.5376 12.9812 30.5227 13.0038 30.5079C14.6039 29.6835 15.9861 29.4162 17.2407 29.6984C18.1872 29.9063 18.946 30.3965 19.6897 30.8718C19.9526 31.05 20.2005 31.2134 20.4635 31.3545C21.2372 31.8001 22.0936 32.0526 22.8975 32.0823C23.6938 32.0526 24.5577 31.8075 25.3239 31.3619C25.5869 31.2282 25.8423 31.0574 26.1052 30.8792C26.8489 30.4039 27.6077 29.9137 28.5542 29.7132C29.8088 29.4385 31.191 29.7132 32.7911 30.5376C32.8137 30.5524 32.8437 30.5673 32.8663 30.5747C33.2193 30.7604 33.5574 30.946 33.8804 31.1391C34.4589 31.4807 35.0148 31.7926 35.5782 32.0229C36.1266 31.3173 36.6074 30.5598 37.0281 29.7726V29.7578C37.0281 29.7578 37.0431 29.7429 37.0431 29.7355C37.2159 29.4087 37.3736 29.0746 37.5239 28.7329C36.8703 28.7626 36.1642 28.6661 35.4655 28.4359C35.1199 28.3171 34.7969 28.1834 34.4814 28.0349L34.4589 28.0051Z" fill="white"/>
<path d="M14.4311 23.1928C15.8509 22.7769 17.6388 22.7547 19.3817 24.0988C22.9425 26.8541 25.3314 24.7895 26.5635 23.98C27.4724 23.3785 28.9824 22.569 31.3262 23.2894C31.3262 23.2894 31.3262 23.2819 31.3262 23.2745C31.3262 23.1928 31.3413 23.1037 31.3413 23.022C31.3413 22.9403 31.3488 22.8512 31.3563 22.7621C31.3563 22.6804 31.3563 22.5987 31.3563 22.517V22.4725C31.3563 22.413 31.3563 22.3388 31.3563 22.2868C31.3563 22.1383 31.3413 21.9972 31.3338 21.8561C31.3338 21.7818 31.3262 21.715 31.3187 21.6407C31.0333 18.9003 29.4031 16.5461 27.0968 15.2391C27.0367 15.202 26.9766 15.1648 26.9165 15.1351C26.8564 15.098 26.7963 15.0757 26.7362 15.046C26.6761 15.0163 26.6085 14.9866 26.5484 14.9569C26.4207 14.8975 26.3005 14.8381 26.1728 14.7861C26.0451 14.7341 25.9174 14.6821 25.7897 14.6375C25.6995 14.6004 25.6094 14.5633 25.5117 14.541C25.4441 14.5113 25.3765 14.4964 25.3089 14.4816C25.2713 14.4667 25.2413 14.4593 25.1962 14.4445C25.1136 14.4222 25.0234 14.3999 24.9333 14.3776C24.8056 14.3405 24.6704 14.3182 24.5426 14.2885C24.4149 14.2588 24.2947 14.2365 24.167 14.2217C24.0318 14.1994 23.9041 14.1845 23.7689 14.1697C23.6186 14.1548 23.4684 14.1474 23.3106 14.1325C23.1754 14.1325 23.0252 14.1251 22.8899 14.1251C22.7472 14.1251 22.597 14.1251 22.4542 14.1325H22.4392C22.3115 14.14 22.1763 14.1548 22.0486 14.1623C21.9133 14.1771 21.7781 14.192 21.6504 14.2068C21.5227 14.2217 21.3875 14.2514 21.2598 14.2737C17.759 14.942 15.0171 17.7567 14.4912 21.2694C14.4762 21.403 14.4536 21.5293 14.4386 21.663C14.4311 21.7892 14.4161 21.9229 14.4086 22.0417V22.0566C14.4011 22.2051 14.3935 22.3462 14.3935 22.4947C14.3935 22.5764 14.3935 22.6507 14.3935 22.7398C14.3935 22.8215 14.3935 22.9106 14.4086 22.9997C14.4086 23.0591 14.4161 23.126 14.4236 23.1854L14.4311 23.1928ZM23.4984 17.7492C23.6712 17.3853 24.1069 17.2071 24.5276 17.2665C24.5952 17.2739 24.6553 17.2888 24.7229 17.3111C25.6845 17.6304 26.6912 18.2988 27.3598 19.0489C28.2162 20.0143 26.9391 21.3511 25.955 20.2519C25.3465 19.5687 24.9107 19.3682 23.9417 18.9597C23.5059 18.7221 23.2731 18.2245 23.4984 17.7492V17.7492Z" fill="white"/>
<path d="M14.4311 23.1928C15.8509 22.7769 17.6388 22.7547 19.3817 24.0988C22.9425 26.8541 25.3314 24.7895 26.5635 23.98C27.4724 23.3785 28.9824 22.569 31.3262 23.2894C31.3262 23.2894 31.3262 23.2819 31.3262 23.2745C31.3262 23.1928 31.3413 23.1037 31.3413 23.022C31.3413 22.9403 31.3488 22.8512 31.3563 22.7621C31.3563 22.6804 31.3563 22.5987 31.3563 22.517V22.4725C31.3563 22.413 31.3563 22.3388 31.3563 22.2868C31.3563 22.1383 31.3413 21.9972 31.3338 21.8561C31.3338 21.7818 31.3262 21.715 31.3187 21.6407C31.0333 18.9003 29.4031 16.5461 27.0968 15.2391C27.0367 15.202 26.9766 15.1648 26.9165 15.1351C26.8564 15.098 26.7963 15.0757 26.7362 15.046C26.6761 15.0163 26.6085 14.9866 26.5484 14.9569C26.4207 14.8975 26.3005 14.8381 26.1728 14.7861C26.0451 14.7341 25.9174 14.6821 25.7897 14.6375C25.6995 14.6004 25.6094 14.5633 25.5117 14.541C25.4441 14.5113 25.3765 14.4964 25.3089 14.4816C25.2713 14.4667 25.2413 14.4593 25.1962 14.4445C25.1136 14.4222 25.0234 14.3999 24.9333 14.3776C24.8056 14.3405 24.6704 14.3182 24.5426 14.2885C24.4149 14.2588 24.2947 14.2365 24.167 14.2217C24.0318 14.1994 23.9041 14.1845 23.7689 14.1697C23.6186 14.1548 23.4684 14.1474 23.3106 14.1325C23.1754 14.1325 23.0252 14.1251 22.8899 14.1251C22.7472 14.1251 22.597 14.1251 22.4542 14.1325H22.4392C22.3115 14.14 22.1763 14.1548 22.0486 14.1623C21.9133 14.1771 21.7781 14.192 21.6504 14.2068C21.5227 14.2217 21.3875 14.2514 21.2598 14.2737C17.759 14.942 15.0171 17.7567 14.4912 21.2694C14.4762 21.403 14.4536 21.5293 14.4386 21.663C14.4311 21.7892 14.4161 21.9229 14.4086 22.0417V22.0566C14.4011 22.2051 14.3935 22.3462 14.3935 22.4947C14.3935 22.5764 14.3935 22.6507 14.3935 22.7398C14.3935 22.8215 14.3935 22.9106 14.4086 22.9997C14.4086 23.0591 14.4161 23.126 14.4236 23.1854L14.4311 23.1928ZM23.4984 17.7492C23.6712 17.3853 24.1069 17.2071 24.5276 17.2665C24.5952 17.2739 24.6553 17.2888 24.7229 17.3111C25.6845 17.6304 26.6912 18.2988 27.3598 19.0489C28.2162 20.0143 26.9391 21.3511 25.955 20.2519C25.3465 19.5687 24.9107 19.3682 23.9417 18.9597C23.5059 18.7221 23.2731 18.2245 23.4984 17.7492V17.7492Z" fill="white"/>
<path d="M22.8974 6.75806C14.1081 6.75064 6.95637 13.8058 6.94135 22.4947C6.94135 23.5196 7.03901 24.5296 7.23432 25.5024C7.59491 25.7029 8.02312 25.7846 8.45132 25.7846C8.87952 25.7846 9.34528 25.6955 9.7284 25.5693C9.94626 25.495 10.1641 25.4133 10.3745 25.3168C10.8027 25.1237 11.2234 24.8935 11.6516 24.6484C11.6215 24.4776 11.5839 24.3068 11.5614 24.136C11.5464 24.084 11.5464 24.0246 11.5389 23.9651C11.5163 23.824 11.5013 23.6755 11.4863 23.5196C11.4863 23.4082 11.4713 23.2893 11.4637 23.1779C11.4637 23.0591 11.4562 22.9403 11.4487 22.8289C11.4487 22.7175 11.4487 22.6061 11.4487 22.5021C11.4487 22.3016 11.4487 22.116 11.4637 21.9154V21.8932C11.4637 21.7298 11.4863 21.5516 11.5013 21.3807C11.5163 21.2025 11.5464 21.0317 11.5689 20.8535C12.2826 16.1154 15.9711 12.3205 20.6963 11.4144C20.8691 11.3847 21.0494 11.3476 21.2222 11.3253C21.395 11.303 21.5828 11.2808 21.7631 11.2585C21.9359 11.2436 22.1162 11.2288 22.289 11.2139H22.3115C22.5068 11.2139 22.7021 11.1991 22.8974 11.1991C23.0853 11.1991 23.2806 11.1991 23.4684 11.2139C23.6712 11.2288 23.8816 11.2436 24.0844 11.2585C24.2647 11.2808 24.4375 11.3031 24.6253 11.3328C24.7905 11.355 24.9633 11.3847 25.1361 11.4219C25.3089 11.459 25.4892 11.4887 25.662 11.5407C25.7747 11.5704 25.9024 11.6001 26.0151 11.6298C26.0676 11.6447 26.1202 11.6595 26.1653 11.6744C26.2554 11.6967 26.3456 11.7264 26.4357 11.7561C26.5634 11.7932 26.6912 11.8303 26.8114 11.8897C26.9841 11.9492 27.1644 12.016 27.3297 12.0903C27.495 12.1645 27.6678 12.2314 27.8405 12.3205C27.9232 12.365 28.0058 12.3947 28.0884 12.4393C28.1636 12.4839 28.2462 12.5136 28.3288 12.5655C28.4115 12.6101 28.4866 12.6547 28.5692 12.7066C31.6868 14.4667 33.8804 17.6527 34.2635 21.3436C34.2786 21.4402 34.2786 21.5367 34.2861 21.6332C34.3011 21.8263 34.3161 22.0194 34.3236 22.2125C34.3236 22.2868 34.3236 22.3833 34.3236 22.465V22.5244C34.3236 22.6284 34.3236 22.7398 34.3236 22.8512C34.3236 22.9626 34.3086 23.0814 34.3011 23.2002C34.3011 23.3116 34.2861 23.4379 34.2786 23.5418C34.2635 23.6607 34.256 23.7721 34.241 23.8835C34.2335 23.9726 34.2185 24.0543 34.2034 24.1434C34.1809 24.3068 34.1584 24.4627 34.1208 24.6261C34.1208 24.6484 34.1133 24.6632 34.1133 24.6855C34.5415 24.9306 34.9622 25.1682 35.3904 25.3613C35.6007 25.4579 35.8111 25.5396 36.0289 25.6138C36.7877 25.8663 37.8018 25.9629 38.5305 25.5544C38.7334 24.5815 38.831 23.5715 38.8385 22.5467C38.846 13.8577 31.7094 6.78777 22.92 6.77292L22.8974 6.75806Z" fill="white"/>
</g>
<defs>
<clipPath id="clip0_501_191">
<rect width="217" height="52" fill="white"/>
</clipPath>
</defs>
</svg>
