<svg width="280" height="106" viewBox="0 0 280 106" fill="none" xmlns="http://www.w3.org/2000/svg">
<g clip-path="url(#clip0_249_411)">
<path d="M129.82 11.7876C129.63 10.5965 129.345 8.35762 126.602 8.35762C125.038 8.35762 123.522 9.45314 123.522 11.1225C123.522 13.2179 124.468 13.6483 130.766 16.5088C137.302 19.4649 138.956 22.5124 138.956 26.6119C138.956 31.7591 136.019 37.4279 126.74 37.4279C116.606 37.4279 114.097 30.7548 114.097 26.2293V25.086H123C123 29.1855 125.509 29.8984 126.645 29.8984C128.775 29.8984 130.054 28.1334 130.054 26.5162C130.054 24.1817 128.585 23.6079 123.19 21.3212C120.727 20.3214 114.619 17.8434 114.619 11.2181C114.619 4.59287 121.017 0.828125 126.887 0.828125C130.343 0.828125 134.084 2.11492 136.356 4.83198C138.438 7.40557 138.581 9.78788 138.676 11.7876H129.82Z" fill="#0083B9"/>
<path d="M154.257 31.5633L152.378 36.7452H142.607L156.905 0.901855H164.075L178.227 36.7452H168.361L166.628 31.5633H154.257ZM156.758 24.299H164.218L160.559 12.044H160.412L156.754 24.299H156.758Z" fill="#0083B9"/>
<path d="M183.661 0.901855H191.505L205.272 23.4251L205.367 23.3295L204.983 0.901855H213.696V36.7452H205.804L192.231 14.9479L192.136 14.9958L192.378 36.7452H183.665V0.901855H183.661Z" fill="#0083B9"/>
<path d="M227.553 8.93999H220.525V0.901855H243.627V8.93999H236.646V36.7452H227.549V8.93999H227.553Z" fill="#0083B9"/>
<path d="M255.428 31.5633L253.549 36.7452H243.778L258.072 0.901855H265.243L279.394 36.7452H269.528L267.796 31.5633H255.424H255.428ZM257.929 24.299H265.389L261.731 12.044H261.584L257.925 24.299H257.929Z" fill="#0083B9"/>
<path d="M114.101 46.0835H125.799L132.874 69.6719H132.969L139.95 46.0835H151.695V81.9269H143.319L143.609 55.0911L143.514 54.9954L135.911 81.9269H129.894L122.291 54.9954L122.196 55.0911L122.486 81.9269H114.11V46.0835H114.101Z" fill="#0083B9"/>
<path d="M166.274 76.7449L164.395 81.9269H154.624L168.918 46.0835H176.089L190.24 81.9269H180.374L178.641 76.7449H166.27H166.274ZM168.775 69.4806H176.235L172.577 57.2256H172.43L168.771 69.4806H168.775Z" fill="#0083B9"/>
<path d="M193.903 46.0835H205.164C211.419 46.0835 213.83 46.8573 216.136 48.6527C219.074 50.9785 220.517 54.7563 220.517 58.4385C220.517 62.5554 218.4 68.6111 211.661 69.724L221.337 81.9312H210.94L202.711 70.3544H202.616V81.9312H193.903V46.0835ZM202.616 64.103H205.838C211.182 64.103 211.808 60.7121 211.808 58.9689C211.808 55.7258 209.45 54.126 205.938 54.126H202.616V64.103Z" fill="#0083B9"/>
<path d="M230.335 54.126H223.307V46.0835H246.409V54.126H239.428V81.9312H230.331V54.126H230.335Z" fill="#0083B9"/>
<path d="M255.506 76.7449L253.627 81.9269H243.856L258.15 46.0835H265.32L279.472 81.9269H269.606L267.873 76.7449H255.502H255.506ZM258.007 69.4806H265.467L261.808 57.2256H261.662L258.003 69.4806H258.007Z" fill="#0083B9"/>
<path d="M118.067 90.5864L121.112 101.259H121.151L124.218 90.5864H128.2L123.134 105.802H119.151L114.105 90.5864H118.071H118.067Z" fill="#0083B9"/>
<path d="M156.736 90.5864H160.598V105.802H156.736V90.5864Z" fill="#0083B9"/>
<path d="M192.115 93.999H189.13V90.5864H198.935V93.999H195.972V105.802H192.11V93.999H192.115Z" fill="#0083B9"/>
<path d="M232.422 103.602L231.627 105.802H227.48L233.549 90.5864H236.594L242.603 105.802H238.413L237.679 103.602H232.426H232.422ZM233.484 100.52H236.651L235.1 95.3163H235.039L233.489 100.52H233.484Z" fill="#0083B9"/>
<path d="M271.13 90.5864H274.992V102.389H279.467V105.802H271.13V90.5864Z" fill="#0083B9"/>
<path d="M104.809 0.828125H0.475952V105.828H104.809V0.828125Z" fill="#49C0E8"/>
<path d="M14.1564 43.4102H20.6057C24.2558 43.4102 25.6165 43.971 26.6791 44.8578C28.2256 46.1446 28.9988 48.1009 28.9988 50.1137C28.9988 52.1265 28.1738 54.2436 26.9211 55.3174C25.5603 56.4694 24.2299 57.0345 21.1672 57.0345H18.9815V63.2555H14.1607V43.4145L14.1564 43.4102ZM18.9771 52.5786H21.029C21.988 52.5786 24.1737 52.5786 24.1737 50.1919C24.1737 47.8053 21.9361 47.8574 20.8432 47.8574H18.9771V52.5742V52.5786Z" fill="white"/>
<path d="M42.0659 43.4102H48.2992C51.7636 43.4102 53.0941 43.8405 54.3727 44.8317C55.9969 46.1185 56.7961 48.2096 56.7961 50.2484C56.7961 52.5264 55.6254 55.8782 51.8932 56.4955L57.2496 63.2512H51.4958L46.9385 56.8433H46.8867V63.2512H42.0659V43.4102ZM46.8867 53.3828H48.6707C51.6297 53.3828 51.9753 51.5048 51.9753 50.5397C51.9753 48.7443 50.6707 47.8574 48.7269 47.8574H46.8867V53.3828Z" fill="white"/>
<path d="M80.7098 43.0317C86.7833 43.0317 91.1289 47.8051 91.1289 53.3261C91.1289 58.8472 86.8135 63.6205 80.6838 63.6205C74.5542 63.6205 70.3209 58.6602 70.3209 53.5652C70.3209 52.2523 70.5067 50.7786 71.0941 49.331C72.1352 46.7574 75.1979 43.0317 80.7098 43.0317ZM80.7918 59.1732C84.3599 59.1732 86.0921 55.9041 86.0921 53.3565C86.0921 50.809 84.3599 47.4834 80.7357 47.4834C77.1115 47.4834 75.3534 50.4873 75.3534 53.2739C75.3534 56.3301 77.4052 59.1732 80.7875 59.1732H80.7918Z" fill="white"/>
</g>
<defs>
<clipPath id="clip0_249_411">
<rect width="279" height="105" fill="white" transform="translate(0.475952 0.828125)"/>
</clipPath>
</defs>
</svg>
